<svg width="146" height="146" viewBox="0 0 146 146" fill="none" xmlns="http://www.w3.org/2000/svg">
<path d="M121.305 11.8844H80.342V85.4736H121.305V11.8844Z" fill="#EBEBEB"/>
<path d="M119.248 14.0173H81.9797V83.2795H119.248V14.0173Z" fill="#FAFAFA"/>
<path d="M119.248 14.8332L81.9797 62.2386V14.0173H119.248V14.8332Z" fill="#F5F5F5"/>
<path d="M120.058 33.9421H81.9797V34.6793H120.058V33.9421Z" fill="#EBEBEB"/>
<path d="M120.058 50.4344H81.9797V51.1717H120.058V50.4344Z" fill="#EBEBEB"/>
<path d="M120.058 66.9298H81.9797V67.667H120.058V66.9298Z" fill="#EBEBEB"/>
<path d="M99.6728 34.3123V85.2434H101.555V34.3123H99.6728Z" fill="#EBEBEB"/>
<path d="M90.0106 14.0173H89.1569V34.3094H90.0106V14.0173Z" fill="#EBEBEB"/>
<path d="M97.3648 14.0173H96.511V34.3094H97.3648V14.0173Z" fill="#EBEBEB"/>
<path d="M104.723 14.0173H103.869V34.3094H104.723V14.0173Z" fill="#EBEBEB"/>
<path d="M112.079 14.0173H111.226V34.3094H112.079V14.0173Z" fill="#EBEBEB"/>
<path d="M80.3431 10.6343H78.6093V85.9252H80.3431V10.6343Z" fill="#F5F5F5"/>
<path d="M123.039 86.135L121.305 85.4706V10.6343H123.039V86.135Z" fill="#E0E0E0"/>
<path d="M123.037 9.87671H78.6093V11.8843H123.037V9.87671Z" fill="#E0E0E0"/>
<path d="M124.214 86.3826H77.3826V88.2533H124.214V86.3826Z" fill="#E0E0E0"/>
<path d="M121.306 85.4705L124.211 86.3825H77.3826L80.3431 85.4705H121.306Z" fill="#EBEBEB"/>
<path d="M80.479 133.875C85.3655 130.941 86.8429 124.968 87.0352 119.519C87.0672 118.61 87.2333 117.66 86.8574 116.835C86.4815 116.011 85.5112 115.396 84.672 115.722C83.9756 115.99 83.6289 116.754 83.2151 117.377C82.652 118.207 81.8662 118.86 80.9481 119.262C80.3479 119.522 79.6194 119.656 79.0716 119.3C78.3199 118.817 78.3024 117.727 78.3694 116.827C78.4976 115.146 78.6248 113.465 78.7511 111.783C78.8682 110.884 78.8387 109.973 78.6637 109.084C78.4422 108.21 77.8799 107.368 77.0378 107.068C76.1957 106.768 75.1001 107.19 74.8553 108.062C74.7962 108.433 74.7622 108.808 74.7533 109.183C74.7009 109.556 74.4998 109.959 74.1356 110.037C73.7713 110.116 73.4246 109.839 73.174 109.556C72.2998 108.58 71.755 107.362 71.245 106.153C70.7351 104.944 70.2427 103.711 69.4676 102.656C68.6925 101.602 67.5765 100.733 66.2886 100.57C65.0007 100.407 63.57 101.112 63.1562 102.356C62.7424 103.601 63.3922 104.95 64.1294 106.034C65.2208 107.646 66.5399 109.092 68.0456 110.326C68.343 110.517 68.5708 110.799 68.6954 111.13C68.8499 111.745 68.2379 112.295 67.6319 112.459C66.9413 112.636 66.2186 112.517 65.5077 112.549C64.7967 112.581 64.0158 112.84 63.704 113.487C63.2698 114.385 63.975 115.405 64.6889 116.092C66.1213 117.465 67.7792 118.582 69.59 119.394C70.2398 119.685 70.9216 119.944 71.4257 120.446C71.9298 120.947 72.1949 121.783 71.8278 122.398C71.4607 123.013 70.6156 123.155 69.928 122.981C69.2403 122.806 68.6459 122.383 68.0019 122.086C66.7927 121.532 65.1871 121.503 64.3188 122.523C64.0511 122.875 63.8684 123.284 63.785 123.718C63.7016 124.152 63.7198 124.6 63.838 125.026C64.0818 125.877 64.4951 126.67 65.0531 127.357C66.8539 129.856 69.2865 131.831 72.1017 133.08C74.9077 134.275 77.5564 134.729 80.4878 133.881" fill="#F5F5F5"/>
<path d="M79.5935 134.138C79.5439 131.97 79.9257 133.17 79.3021 130.373C78.6059 127.35 77.7361 124.369 76.6971 121.445C76.4232 120.668 76.1551 119.899 75.8929 119.137C75.6277 118.383 75.3626 117.634 75.0624 116.917C74.4779 115.54 73.8174 114.197 73.0839 112.893C72.3934 111.643 71.694 110.483 71.0443 109.396C70.3945 108.309 69.7418 107.322 69.1182 106.442C68.1461 105.045 67.0636 103.729 65.8809 102.505C65.4642 102.071 65.1291 101.747 64.8989 101.529L64.6367 101.284C64.6079 101.255 64.5767 101.229 64.5435 101.205C64.5674 101.238 64.5948 101.269 64.625 101.296L64.8756 101.552C65.0971 101.779 65.4234 102.112 65.8343 102.552C66.9948 103.789 68.0604 105.111 69.022 106.509C69.6369 107.383 70.2692 108.388 70.9277 109.469C71.5862 110.55 72.2797 111.713 72.9674 112.966C73.6923 114.267 74.346 115.606 74.9255 116.978C75.2169 117.692 75.485 118.435 75.7501 119.193L76.5543 121.497C77.5932 124.415 78.4687 127.388 79.1768 130.402C79.7975 133.191 79.4274 131.979 79.4886 134.138" fill="#E0E0E0"/>
<path d="M75.0214 116.905C75.0748 116.784 75.1139 116.657 75.138 116.526C75.2021 116.282 75.2837 115.923 75.3769 115.477C75.5692 114.586 75.7878 113.35 76.0267 111.981C76.2656 110.611 76.5017 109.384 76.7027 108.499C76.8047 108.059 76.8892 107.7 76.9504 107.453C76.9895 107.326 77.0158 107.197 77.0291 107.065C76.9681 107.183 76.9212 107.307 76.8892 107.435C76.8076 107.677 76.7056 108.018 76.5978 108.472C76.3647 109.347 76.1083 110.585 75.8723 111.952C75.6362 113.318 75.4323 114.519 75.272 115.448C75.1962 115.868 75.1321 116.223 75.0826 116.506C75.0476 116.636 75.0271 116.77 75.0214 116.905Z" fill="#E0E0E0"/>
<path d="M63.5709 113.948C63.7211 113.992 63.8753 114.021 64.0313 114.035C64.3227 114.082 64.7539 114.149 65.2813 114.248C66.3362 114.434 67.7843 114.746 69.3607 115.16C70.9371 115.574 72.3591 116.014 73.3731 116.36C73.883 116.529 74.291 116.678 74.5736 116.777C74.7163 116.839 74.8646 116.887 75.0165 116.92C74.8834 116.839 74.7429 116.77 74.5969 116.716C74.3201 116.596 73.918 116.424 73.411 116.247C72.4028 115.871 70.9896 115.413 69.4015 114.997C68.0485 114.636 66.6783 114.345 65.2959 114.122C64.7627 114.041 64.3314 113.991 64.0313 113.965C63.8787 113.945 63.7246 113.939 63.5709 113.948Z" fill="#E0E0E0"/>
<path d="M79.1823 130.149C79.2187 130.108 79.2491 130.061 79.2726 130.012L79.4999 129.607C79.6951 129.254 79.9661 128.733 80.2924 128.089C80.9422 126.798 81.7872 124.988 82.6934 122.978C83.5996 120.967 84.4243 119.149 85.0478 117.846L85.7909 116.308L85.9919 115.888C86.0193 115.84 86.039 115.788 86.0502 115.734C86.0174 115.777 85.9881 115.823 85.9628 115.871L85.7355 116.276C85.5374 116.631 85.2693 117.15 84.9429 117.794C84.2902 119.085 83.4452 120.897 82.5419 122.908C81.6386 124.918 80.8111 126.734 80.1875 128.036L79.4416 129.578L79.2434 129.997C79.2165 130.045 79.1959 130.096 79.1823 130.149Z" fill="#E0E0E0"/>
<path d="M64.1097 124.111C64.1555 124.142 64.2055 124.167 64.2583 124.184L64.6954 124.368L66.298 125.02C67.6617 125.571 69.5353 126.349 71.6041 127.214C73.6729 128.08 75.5553 128.84 76.9306 129.362C77.6183 129.621 78.1748 129.828 78.5624 129.962L79.0111 130.114C79.0625 130.134 79.1164 130.148 79.1714 130.155C79.1252 130.124 79.0752 130.099 79.0228 130.082L78.5857 129.901L76.9714 129.251C75.6106 128.701 73.737 127.923 71.6653 127.057C69.5935 126.192 67.717 125.431 66.3417 124.91C65.654 124.65 65.0975 124.443 64.707 124.312L64.2583 124.146C64.2105 124.128 64.1605 124.116 64.1097 124.111Z" fill="#E0E0E0"/>
<path d="M57.6198 21.0543H46.6025V24.6005H57.6198V21.0543Z" fill="#F5F5F5"/>
<path d="M67.9536 28.1465H56.9363V31.6926H67.9536V28.1465Z" fill="#FAFAFA"/>
<path d="M61.8014 28.1465C61.7992 28.1243 61.7992 28.1018 61.8014 28.0795V27.896C61.8014 27.724 61.8014 27.4909 61.8014 27.1937C61.8014 26.576 61.7869 25.696 61.7752 24.6004L61.8247 24.6499L51.0435 24.6762C51.0756 24.6412 50.9648 24.7519 51.1163 24.6004V28.1465L51.0406 28.0737L58.7215 28.1058L60.9856 28.1262H61.5945H61.8131C61.7471 28.1303 61.6809 28.1303 61.6149 28.1262H61.0322L58.7885 28.1465L51.0348 28.1815H50.9619V26.3749C50.9619 26.0835 50.9619 25.7922 50.9619 25.4775V24.6062C51.1134 24.4547 51.0056 24.5625 51.0406 24.5305L61.8218 24.5567H61.8714V24.6062C61.8714 25.7164 61.851 26.6051 61.8451 27.2287C61.8451 27.5201 61.8451 27.7503 61.8451 27.9193C61.8451 28.0883 61.8043 28.1495 61.8014 28.1465Z" fill="#E0E0E0"/>
<path d="M136.894 51.326H125.877V54.8722H136.894V51.326Z" fill="#FAFAFA"/>
<path d="M140.601 51.2359C140.599 51.2136 140.599 51.1911 140.601 51.1688C140.601 51.1193 140.601 51.0581 140.601 50.9853C140.601 50.8133 140.601 50.5802 140.601 50.283C140.601 49.6653 140.587 48.7882 140.575 47.6897L140.624 47.7392L129.843 47.7655C129.875 47.7305 129.765 47.8412 129.916 47.6897V51.23L129.84 51.1572L137.542 51.1892L139.803 51.2125H140.415H140.633C140.566 51.2167 140.499 51.2167 140.432 51.2125H139.849L137.606 51.2329L129.82 51.3H129.747V49.4963C129.747 49.2049 129.747 48.8989 129.747 48.5959V47.6868C129.899 47.5353 129.791 47.6431 129.826 47.611L140.607 47.6373H140.657V47.6868C140.657 48.797 140.636 49.6857 140.63 50.3093C140.63 50.6006 140.63 50.8308 140.63 50.9998C140.63 51.1688 140.601 51.2388 140.601 51.2359Z" fill="#E0E0E0"/>
<path d="M132.258 91.2605H121.241V94.8066H132.258V91.2605Z" fill="#F5F5F5"/>
<path d="M136.093 94.6841H125.075V98.2302H136.093V94.6841Z" fill="#FAFAFA"/>
<path d="M129.097 101.709C129.095 101.688 129.095 101.667 129.097 101.645V101.459C129.097 101.287 129.097 101.054 129.097 100.757C129.097 100.139 129.083 99.2617 129.071 98.1632L129.12 98.2127L118.339 98.239C118.371 98.2069 118.261 98.3147 118.412 98.1632V101.709L118.336 101.637L126.038 101.671L128.299 101.692H128.911H129.129C129.062 101.695 128.995 101.695 128.928 101.692H128.345L126.102 101.712L118.348 101.747H118.275V99.9406C118.275 99.6493 118.275 99.3433 118.275 99.0403V98.1312C118.427 97.9796 118.319 98.0904 118.354 98.0554L129.135 98.0816H129.185V98.1312C129.185 99.2413 129.164 100.13 129.158 100.754C129.158 101.045 129.158 101.278 129.158 101.447C129.158 101.616 129.1 101.724 129.097 101.709Z" fill="#E0E0E0"/>
<path d="M21.1651 43.214H10.1478V46.7601H21.1651V43.214Z" fill="#FAFAFA"/>
<path d="M26.0342 43.2139C26.0342 43.2139 26.0342 43.1877 26.0342 43.1469C26.0342 43.1061 26.0342 43.0362 26.0342 42.9633C26.0342 42.7914 26.0342 42.5554 26.0342 42.2582C26.0342 41.6434 26.0167 40.7634 26.005 39.6649L26.0546 39.7144L15.2733 39.7406L15.3491 39.6678V41.4802C15.3491 42.063 15.3491 42.6457 15.3491 43.2139L15.2762 43.1382L22.9775 43.1731L25.2387 43.1935H25.8506C25.9223 43.1869 25.9945 43.1869 26.0662 43.1935C26.0002 43.1978 25.934 43.1978 25.8681 43.1935H25.2853L23.0416 43.2139L15.2908 43.2489H15.218V43.176C15.218 42.6137 15.218 42.0367 15.218 41.4423V39.6299C15.3695 39.4755 15.2587 39.5862 15.2937 39.5512L26.075 39.5774H26.0866V39.627C26.0866 40.7372 26.0633 41.6259 26.0575 42.2494C26.0575 42.5408 26.0575 42.771 26.0575 42.94C26.06 43.0319 26.0522 43.1238 26.0342 43.2139Z" fill="#E0E0E0"/>
<path d="M139.259 134.432C139.259 134.473 109.462 134.508 72.7121 134.508C35.9627 134.508 6.15985 134.473 6.15985 134.432C6.15985 134.392 35.951 134.345 72.7092 134.345C109.467 134.345 139.259 134.392 139.259 134.432Z" fill="#263238"/>
<path d="M128.515 119.714L128.124 126.929C128.117 127.053 128.063 127.169 127.973 127.254C127.883 127.34 127.765 127.388 127.641 127.389L114.66 127.486C114.53 127.486 114.406 127.435 114.314 127.344C114.222 127.254 114.169 127.131 114.167 127.002L114.126 121.384C114.126 121.255 114.177 121.131 114.269 121.039C114.36 120.947 114.484 120.895 114.613 120.894H122.597C122.726 120.893 122.849 120.842 122.941 120.752L124.319 119.373C124.409 119.283 124.532 119.231 124.66 119.231L128.025 119.207C128.091 119.206 128.157 119.219 128.218 119.244C128.279 119.27 128.334 119.308 128.38 119.355C128.426 119.403 128.461 119.459 128.484 119.521C128.508 119.582 128.518 119.648 128.515 119.714Z" fill="#1976D2"/>
<path opacity="0.3" d="M128.515 119.714L128.124 126.929C128.117 127.053 128.063 127.169 127.973 127.254C127.883 127.34 127.765 127.388 127.641 127.389L114.66 127.486C114.53 127.486 114.406 127.435 114.314 127.344C114.222 127.254 114.169 127.131 114.167 127.002L114.126 121.384C114.126 121.255 114.177 121.131 114.269 121.039C114.36 120.947 114.484 120.895 114.613 120.894H122.597C122.726 120.893 122.849 120.842 122.941 120.752L124.319 119.373C124.409 119.283 124.532 119.231 124.66 119.231L128.025 119.207C128.091 119.206 128.157 119.219 128.218 119.244C128.279 119.27 128.334 119.308 128.38 119.355C128.426 119.403 128.461 119.459 128.484 119.521C128.508 119.582 128.518 119.648 128.515 119.714Z" fill="black"/>
<path d="M114.179 128.521L128.363 128.417L128.301 119.941L114.117 120.045L114.179 128.521Z" fill="#F5F5F5"/>
<path d="M129.435 120.693L128.418 129.54C128.411 129.618 128.376 129.69 128.319 129.744C128.262 129.798 128.187 129.829 128.109 129.831L114.286 129.93C114.206 129.932 114.129 129.902 114.07 129.848C114.011 129.794 113.976 129.719 113.971 129.639L113.211 120.798C113.207 120.755 113.212 120.712 113.225 120.671C113.239 120.63 113.261 120.593 113.29 120.561C113.319 120.529 113.355 120.503 113.394 120.486C113.434 120.469 113.476 120.46 113.52 120.46L129.123 120.344C129.167 120.344 129.211 120.353 129.251 120.371C129.292 120.389 129.328 120.416 129.357 120.449C129.387 120.482 129.409 120.521 129.422 120.563C129.436 120.605 129.44 120.649 129.435 120.693Z" fill="#1976D2"/>
<path d="M132.334 118.353L131.944 125.568C131.936 125.692 131.882 125.808 131.793 125.894C131.703 125.979 131.584 126.027 131.46 126.029L118.479 126.122C118.415 126.123 118.352 126.111 118.292 126.087C118.233 126.063 118.179 126.028 118.133 125.983C118.087 125.939 118.051 125.886 118.026 125.827C118.001 125.768 117.987 125.705 117.986 125.641L117.946 120.023C117.945 119.959 117.958 119.895 117.982 119.836C118.006 119.777 118.042 119.723 118.087 119.677C118.132 119.632 118.186 119.596 118.245 119.571C118.305 119.546 118.368 119.534 118.432 119.534H126.416C126.545 119.534 126.668 119.484 126.76 119.394L128.138 118.015C128.229 117.925 128.351 117.873 128.479 117.873L131.845 117.849C131.91 117.849 131.975 117.862 132.036 117.887C132.097 117.913 132.151 117.95 132.197 117.997C132.243 118.044 132.278 118.1 132.302 118.161C132.326 118.222 132.337 118.288 132.334 118.353Z" fill="#1976D2"/>
<path opacity="0.3" d="M132.334 118.353L131.944 125.568C131.936 125.692 131.882 125.808 131.793 125.894C131.703 125.979 131.584 126.027 131.46 126.029L118.479 126.122C118.415 126.123 118.352 126.111 118.292 126.087C118.233 126.063 118.179 126.028 118.133 125.983C118.087 125.939 118.051 125.886 118.026 125.827C118.001 125.768 117.987 125.705 117.986 125.641L117.946 120.023C117.945 119.959 117.958 119.895 117.982 119.836C118.006 119.777 118.042 119.723 118.087 119.677C118.132 119.632 118.186 119.596 118.245 119.571C118.305 119.546 118.368 119.534 118.432 119.534H126.416C126.545 119.534 126.668 119.484 126.76 119.394L128.138 118.015C128.229 117.925 128.351 117.873 128.479 117.873L131.845 117.849C131.91 117.849 131.975 117.862 132.036 117.887C132.097 117.913 132.151 117.95 132.197 117.997C132.243 118.044 132.278 118.1 132.302 118.161C132.326 118.222 132.337 118.288 132.334 118.353Z" fill="black"/>
<path d="M117.999 127.16L132.184 127.056L132.121 118.58L117.937 118.683L117.999 127.16Z" fill="#F5F5F5"/>
<path d="M133.256 119.333L132.236 128.179C132.231 128.258 132.197 128.332 132.14 128.386C132.082 128.44 132.006 128.471 131.927 128.47L118.104 128.572C118.024 128.573 117.947 128.544 117.888 128.489C117.83 128.435 117.794 128.361 117.789 128.281L117.029 119.446C117.025 119.403 117.03 119.36 117.044 119.319C117.058 119.278 117.081 119.24 117.11 119.209C117.139 119.177 117.175 119.152 117.215 119.134C117.254 119.117 117.297 119.108 117.34 119.108L132.941 118.992C132.985 118.992 133.028 119 133.068 119.018C133.108 119.035 133.144 119.061 133.173 119.093C133.203 119.125 133.226 119.163 133.24 119.204C133.254 119.245 133.259 119.289 133.256 119.333Z" fill="#1976D2"/>
<path opacity="0.3" d="M133.256 119.333L132.236 128.179C132.231 128.258 132.197 128.332 132.14 128.386C132.082 128.44 132.006 128.471 131.927 128.47L118.104 128.572C118.024 128.573 117.947 128.544 117.888 128.489C117.83 128.435 117.794 128.361 117.789 128.281L117.029 119.446C117.025 119.403 117.03 119.36 117.044 119.319C117.058 119.278 117.081 119.24 117.11 119.209C117.139 119.177 117.175 119.152 117.215 119.134C117.254 119.117 117.297 119.108 117.34 119.108L132.941 118.992C132.985 118.992 133.028 119 133.068 119.018C133.108 119.035 133.144 119.061 133.173 119.093C133.203 119.125 133.226 119.163 133.24 119.204C133.254 119.245 133.259 119.289 133.256 119.333Z" fill="black"/>
<path d="M136.639 120.044L136.248 127.255C136.242 127.38 136.188 127.497 136.098 127.583C136.008 127.669 135.889 127.717 135.765 127.719L122.783 127.812C122.654 127.813 122.53 127.762 122.437 127.672C122.345 127.581 122.292 127.458 122.291 127.328L122.244 121.713C122.244 121.584 122.295 121.46 122.387 121.368C122.478 121.276 122.602 121.224 122.731 121.224H130.715C130.779 121.224 130.842 121.212 130.901 121.188C130.961 121.163 131.014 121.127 131.059 121.081L132.437 119.706C132.527 119.615 132.65 119.563 132.778 119.563L136.143 119.537C136.21 119.535 136.276 119.548 136.337 119.573C136.399 119.598 136.454 119.636 136.501 119.683C136.547 119.731 136.583 119.787 136.607 119.849C136.631 119.911 136.642 119.977 136.639 120.044Z" fill="#1976D2"/>
<path d="M122.301 128.849L136.485 128.745L136.423 120.269L122.238 120.373L122.301 128.849Z" fill="#F5F5F5"/>
<path d="M137.558 121.023L136.541 129.869C136.532 129.945 136.496 130.015 136.439 130.066C136.382 130.116 136.309 130.145 136.232 130.146L122.406 130.248C122.327 130.249 122.25 130.219 122.192 130.165C122.134 130.11 122.099 130.036 122.094 129.956L121.334 121.122C121.33 121.079 121.335 121.035 121.348 120.994C121.362 120.953 121.384 120.915 121.413 120.883C121.442 120.851 121.478 120.825 121.517 120.808C121.557 120.79 121.599 120.781 121.643 120.781L137.243 120.667C137.288 120.667 137.333 120.676 137.374 120.694C137.415 120.713 137.452 120.74 137.482 120.773C137.512 120.807 137.534 120.847 137.547 120.89C137.56 120.933 137.564 120.978 137.558 121.023Z" fill="#1976D2"/>
<path d="M121.332 122.226V134.496H139.037V122.226H121.332ZM127.111 124.438C127.111 124.197 127.206 123.967 127.376 123.797C127.546 123.627 127.777 123.532 128.017 123.532H132.353C132.476 123.525 132.599 123.543 132.715 123.585C132.831 123.627 132.937 123.693 133.026 123.778C133.116 123.862 133.187 123.964 133.236 124.078C133.285 124.191 133.31 124.313 133.31 124.436C133.31 124.56 133.285 124.682 133.236 124.795C133.187 124.908 133.116 125.01 133.026 125.095C132.937 125.18 132.831 125.245 132.715 125.288C132.599 125.33 132.476 125.348 132.353 125.341H128.017C127.777 125.341 127.547 125.246 127.377 125.077C127.207 124.907 127.111 124.678 127.111 124.438Z" fill="#455A64"/>
<path d="M111.789 122.226V134.496H121.332V122.226H111.789Z" fill="#263238"/>
<path d="M78.416 125.227L77.4923 130.557C77.4923 130.557 71.7666 131.407 71.5015 132.375L81.764 134.537L83.5444 126.297L78.416 125.227Z" fill="#1976D2"/>
<path opacity="0.6" d="M81.7643 134.534L81.91 133.698L72.0029 131.95C72.0029 131.95 71.5047 132.052 71.4901 132.384L81.7643 134.534Z" fill="white"/>
<path d="M77.3355 130.469C77.3355 130.519 77.5744 130.595 77.7871 130.807C77.9998 131.02 78.0785 131.259 78.1368 131.247C78.1951 131.236 78.1718 130.933 77.9095 130.679C77.6473 130.426 77.3355 130.42 77.3355 130.469Z" fill="#263238"/>
<path d="M76.1675 130.688C76.1442 130.731 76.3453 130.862 76.4589 131.11C76.5725 131.358 76.5842 131.594 76.6366 131.603C76.6891 131.611 76.7765 131.334 76.6162 131.02C76.456 130.705 76.1792 130.638 76.1675 130.688Z" fill="#263238"/>
<path d="M75.284 131.844C75.3277 131.865 75.4501 131.632 75.3772 131.329C75.3044 131.026 75.0858 130.868 75.0654 130.906C75.045 130.944 75.1499 131.122 75.2053 131.369C75.2607 131.617 75.2344 131.83 75.284 131.844Z" fill="#263238"/>
<path d="M77.6818 129.278C77.6818 129.327 77.9383 129.307 78.2151 129.385C78.4919 129.464 78.6988 129.601 78.7337 129.563C78.7687 129.525 78.5939 129.301 78.2617 129.214C77.9295 129.126 77.6615 129.234 77.6818 129.278Z" fill="#263238"/>
<path opacity="0.3" d="M78.2338 126.285L78.0677 127.232L83.1233 128.249L83.3098 127.401L78.2338 126.285Z" fill="black"/>
<path d="M77.8894 128.205C78.0476 128.287 78.2247 128.324 78.4022 128.313C78.5979 128.319 78.7935 128.301 78.985 128.261C79.0958 128.236 79.2048 128.204 79.3114 128.164C79.3761 128.146 79.4371 128.116 79.492 128.077C79.5327 128.049 79.5629 128.007 79.5776 127.96C79.5924 127.912 79.591 127.861 79.5736 127.815C79.5549 127.775 79.5273 127.74 79.493 127.712C79.4587 127.684 79.4185 127.665 79.3755 127.655C79.3103 127.641 79.2437 127.637 79.1773 127.64C79.0626 127.644 78.9484 127.658 78.8364 127.684C78.6465 127.724 78.4644 127.795 78.2973 127.893C78.006 128.065 77.8894 128.234 77.9069 128.249C77.9244 128.264 78.073 128.138 78.3556 128.007C78.5183 127.929 78.6908 127.875 78.8685 127.844C78.9725 127.826 79.0777 127.817 79.1832 127.815C79.2968 127.815 79.39 127.829 79.4075 127.882C79.425 127.934 79.4075 127.911 79.3842 127.937C79.3431 127.965 79.2979 127.987 79.2502 128.001C79.1551 128.04 79.0578 128.073 78.9588 128.1C78.7821 128.145 78.6017 128.174 78.4197 128.185C78.2427 128.179 78.0655 128.186 77.8894 128.205Z" fill="#263238"/>
<path d="M77.9528 128.293C78.0787 128.165 78.1622 128.001 78.1917 127.823C78.2418 127.634 78.2585 127.436 78.2412 127.241C78.2296 127.125 78.2072 127.011 78.1742 126.9C78.1616 126.826 78.1299 126.758 78.0823 126.7C78.0348 126.643 77.973 126.599 77.9032 126.573C77.8575 126.564 77.8101 126.568 77.7666 126.585C77.7232 126.602 77.6856 126.632 77.6585 126.67C77.619 126.724 77.5876 126.784 77.5652 126.847C77.5234 126.959 77.4989 127.075 77.4924 127.194C77.4792 127.394 77.5162 127.595 77.6002 127.777C77.743 128.086 77.9411 128.188 77.9469 128.173C77.9528 128.159 77.8158 128.019 77.7167 127.73C77.6589 127.564 77.638 127.387 77.6556 127.212C77.6649 127.111 77.6895 127.013 77.7284 126.92C77.7663 126.815 77.8275 126.737 77.8654 126.754C77.9032 126.772 77.9848 126.865 78.0081 126.961C78.0405 127.061 78.0639 127.163 78.0781 127.267C78.1018 127.444 78.1018 127.623 78.0781 127.8C78.0052 128.103 77.912 128.278 77.9528 128.293Z" fill="#263238"/>
<path d="M113.286 125.347L111.066 122.447L110.952 122.299L107.164 125.111L110.661 128.957L110.533 132.85C108.584 133.354 108.289 134.327 108.289 134.327H112.342L116.026 127.235L113.286 125.347Z" fill="#1976D2"/>
<path opacity="0.6" d="M116.038 127.232L112.355 134.324L108.301 134.327L108.759 133.718L112.054 133.535L115.452 126.83L116.038 127.232Z" fill="white"/>
<path d="M110.569 131.067C110.601 131.108 110.834 130.973 111.152 130.982C111.469 130.991 111.696 131.122 111.734 131.081C111.772 131.04 111.542 130.807 111.152 130.804C110.761 130.802 110.534 131.035 110.569 131.067Z" fill="#263238"/>
<path d="M110.635 130.099C110.676 130.128 110.854 129.889 111.177 129.825C111.5 129.761 111.76 129.91 111.786 129.869C111.812 129.828 111.754 129.782 111.64 129.72C111.487 129.641 111.312 129.616 111.143 129.65C110.974 129.684 110.821 129.775 110.711 129.907C110.632 130.009 110.615 130.088 110.635 130.099Z" fill="#263238"/>
<path d="M110.606 128.861C110.649 128.881 110.789 128.648 111.072 128.549C111.355 128.45 111.608 128.549 111.628 128.499C111.649 128.45 111.588 128.421 111.474 128.38C111.324 128.329 111.161 128.329 111.011 128.382C110.861 128.435 110.734 128.537 110.649 128.671C110.588 128.776 110.588 128.852 110.606 128.861Z" fill="#263238"/>
<path d="M109.522 127.899C109.568 127.917 109.682 127.687 109.935 127.523C110.189 127.36 110.437 127.334 110.44 127.284C110.442 127.235 110.148 127.168 109.836 127.375C109.525 127.582 109.472 127.893 109.522 127.899Z" fill="#263238"/>
<path d="M108.992 127.06C109.13 126.937 109.249 126.794 109.344 126.635L109.688 126.148C109.766 126.048 109.828 125.937 109.874 125.819C109.887 125.779 109.892 125.736 109.888 125.694C109.884 125.652 109.871 125.611 109.851 125.574C109.828 125.531 109.792 125.495 109.748 125.473C109.705 125.45 109.655 125.44 109.606 125.446C109.464 125.473 109.332 125.541 109.228 125.641C109.133 125.727 109.05 125.825 108.98 125.932C108.867 126.108 108.795 126.308 108.77 126.515C108.727 126.704 108.76 126.903 108.86 127.069C108.861 126.891 108.872 126.713 108.892 126.536C108.951 126.241 109.108 125.975 109.338 125.781C109.42 125.706 109.521 125.653 109.63 125.629C109.645 125.627 109.66 125.628 109.674 125.635C109.689 125.641 109.7 125.651 109.708 125.664C109.723 125.702 109.723 125.743 109.708 125.781C109.669 125.884 109.617 125.982 109.554 126.072L109.242 126.579C109.134 126.726 109.05 126.888 108.992 127.06Z" fill="#263238"/>
<path d="M108.84 127.188C108.86 127.188 108.84 126.973 108.624 126.731C108.475 126.569 108.277 126.46 108.06 126.421C107.843 126.382 107.62 126.415 107.423 126.515C107.403 126.532 107.386 126.554 107.375 126.579C107.364 126.604 107.358 126.631 107.359 126.658C107.361 126.705 107.379 126.75 107.409 126.786C107.45 126.837 107.499 126.88 107.555 126.914C107.646 126.978 107.744 127.033 107.846 127.077C108.015 127.155 108.195 127.205 108.379 127.226C108.547 127.264 108.723 127.248 108.88 127.179C108.88 127.15 108.688 127.165 108.4 127.104C108.232 127.067 108.07 127.008 107.919 126.929C107.832 126.883 107.751 126.829 107.674 126.769C107.634 126.744 107.599 126.714 107.569 126.678C107.549 126.643 107.555 126.652 107.569 126.643C107.605 126.621 107.644 126.606 107.686 126.6C107.735 126.588 107.786 126.58 107.837 126.576C107.935 126.568 108.033 126.575 108.129 126.597C108.291 126.633 108.441 126.709 108.566 126.818C108.758 127.013 108.819 127.2 108.84 127.188Z" fill="#263238"/>
<path opacity="0.3" d="M107.522 125.498L108.3 126.352L111.573 123.109L111.118 122.518L107.522 125.498Z" fill="black"/>
<path d="M87.7267 73.3084C87.7267 73.3084 83.9387 86.1643 80.5528 100.699C78.5131 109.51 76.5754 125.906 76.5754 125.906L85.5675 127.888L89.4226 106.809L93.5369 94.3318C94.9501 90.3923 96.9811 87.5134 99.4462 85.3805C102.127 81.5925 103.526 77.2596 102.987 72.647L87.7267 73.3084Z" fill="#263238"/>
<path d="M86.9863 75.3569L90.346 103.038C90.6723 105.71 91.124 108.283 92.9393 110.273L106.544 126.407L113.284 120.358L98.8632 100.643L101.369 72.851L87.2602 75.2578" fill="#263238"/>
<path d="M98.9999 100.436C99.0261 100.486 98.4171 100.789 97.8344 101.392C97.2516 101.995 96.9923 102.619 96.9427 102.595C96.8932 102.572 97.1001 101.893 97.7003 101.267C98.3006 100.64 98.9882 100.389 98.9999 100.436Z" fill="#455A64"/>
<path d="M98.7966 100.643C98.7966 100.696 98.2575 100.678 97.6106 100.742C96.9638 100.806 96.4451 100.923 96.4247 100.871C96.7828 100.675 97.1824 100.568 97.5903 100.559C98.2604 100.492 98.8024 100.594 98.7966 100.643Z" fill="#455A64"/>
<path d="M102.58 78.9351C102.571 79.041 102.554 79.1462 102.531 79.2498C102.507 79.3605 102.484 79.4858 102.455 79.6315C102.426 79.7772 102.364 79.952 102.309 80.1414C101.956 81.2147 101.454 82.2329 100.817 83.166C100.03 84.3636 98.9378 85.666 97.7751 87.1405C97.1642 87.9072 96.5998 88.7099 96.0851 89.5444C95.5448 90.4477 95.0535 91.3796 94.6136 92.3358C93.7074 94.3056 92.976 96.2404 92.3554 98.0149C91.7347 99.7895 91.219 101.401 90.7819 102.756C90.3448 104.111 90.001 105.189 89.7504 105.961C89.628 106.325 89.529 106.617 89.459 106.835C89.4278 106.935 89.3888 107.033 89.3425 107.127C89.3604 107.021 89.3867 106.916 89.4211 106.815L89.6805 105.941L90.6537 102.712C91.0733 101.354 91.5774 99.7341 92.1893 97.9537C92.8012 96.1734 93.5297 94.2298 94.4388 92.2513C94.8828 91.2892 95.3799 90.3524 95.9278 89.4453C96.4462 88.6047 97.0175 87.7979 97.6382 87.0297C98.8037 85.5553 99.911 84.2674 100.704 83.0902C101.345 82.1721 101.862 81.1726 102.239 80.1181C102.297 79.9287 102.359 79.7626 102.399 79.614C102.44 79.4654 102.466 79.3459 102.493 79.241C102.513 79.1368 102.543 79.0345 102.58 78.9351Z" fill="#455A64"/>
<path d="M70.0857 65.3156L67.7226 66.5452L63.6228 68.5587C63.3461 68.6544 63.1133 68.8469 62.9672 69.1006L61.4636 71.7464H64.3396L65.1059 70.4556C65.5881 70.6281 66.1119 70.6468 66.6051 70.509C67.0983 70.3712 67.5366 70.0838 67.8595 69.6863L72.0351 68.2294L70.0857 65.3156Z" fill="#FFBE9D"/>
<path d="M89.5821 30.431C88.7079 30.5068 87.9795 31.1508 87.4724 31.8676C86.9654 32.5844 86.6129 33.4061 86.0825 34.1054C85.6862 34.627 85.1822 35.099 84.9869 35.7226C84.6752 36.7191 85.2229 37.8672 84.7888 38.8142C84.5411 39.3503 84.0224 39.7145 83.766 40.2449C83.4455 40.9063 83.5912 41.7018 83.7864 42.4011C83.8841 42.9053 84.1331 43.3678 84.5003 43.7269C84.8311 43.9538 85.2121 44.0968 85.6105 44.1436C88.5969 44.6928 91.6799 44.3113 94.4424 43.0509" fill="#263238"/>
<path d="M96.4097 35.4167C96.3976 34.8102 96.2638 34.2123 96.016 33.6585C95.7683 33.1048 95.4117 32.6065 94.9675 32.1934C94.5234 31.7802 94.0006 31.4605 93.4305 31.2534C92.8603 31.0463 92.2543 30.9559 91.6485 30.9877C89.2271 31.11 87.3651 33.1963 87.3506 35.6207C87.3506 37.7449 87.3768 39.8836 87.4992 40.6441C87.8634 42.9373 89.3378 43.6367 89.9206 43.8261C90.1276 43.8685 90.3386 43.889 90.55 43.8873C90.5541 43.8879 90.5578 43.8901 90.5605 43.8933C90.5632 43.8965 90.5646 43.9006 90.5645 43.9047L90.4392 46.6175C90.4596 48.3658 91.6485 49.7791 93.4114 49.7791C95.1742 49.7791 96.3398 48.2551 96.3514 46.4864L96.4097 35.4167Z" fill="#DDB4A4"/>
<path d="M88.2156 36.8095C88.2156 36.9056 88.2529 36.998 88.3198 37.0671C88.3867 37.1362 88.4779 37.1765 88.574 37.1795C88.6209 37.1835 88.6681 37.178 88.7128 37.1633C88.7574 37.1486 88.7987 37.125 88.8341 37.094C88.8694 37.063 88.8982 37.0252 88.9186 36.9828C88.939 36.9404 88.9506 36.8944 88.9528 36.8474C88.9544 36.751 88.918 36.6578 88.8515 36.5881C88.785 36.5183 88.6937 36.4774 88.5973 36.4744C88.5501 36.4708 88.5027 36.4767 88.4579 36.4917C88.413 36.5067 88.3716 36.5305 88.336 36.5617C88.3005 36.5929 88.2715 36.6309 88.2508 36.6735C88.2302 36.716 88.2182 36.7623 88.2156 36.8095Z" fill="#263238"/>
<path d="M87.9803 36.1654C88.0241 36.2149 88.3038 36.008 88.703 36.008C89.1022 36.008 89.3906 36.2062 89.4344 36.1595C89.4781 36.1129 89.4081 36.0517 89.2799 35.9585C89.1091 35.8393 88.9054 35.7762 88.6972 35.7778C88.4877 35.7747 88.2831 35.8402 88.1144 35.9643C87.9978 36.0575 87.957 36.1479 87.9803 36.1654Z" fill="#263238"/>
<path d="M92.1033 36.8095C92.1018 36.9056 92.1382 36.9984 92.2048 37.0677C92.2714 37.1371 92.3627 37.1773 92.4588 37.1795C92.5057 37.1835 92.5529 37.178 92.5976 37.1633C92.6422 37.1486 92.6835 37.125 92.7189 37.094C92.7542 37.063 92.783 37.0252 92.8034 36.9828C92.8238 36.9404 92.8354 36.8944 92.8376 36.8474C92.8392 36.751 92.8028 36.6578 92.7363 36.588C92.6698 36.5183 92.5785 36.4774 92.4821 36.4744C92.4351 36.4708 92.3878 36.4767 92.3431 36.4918C92.2985 36.5068 92.2572 36.5306 92.2219 36.5619C92.1866 36.5931 92.1579 36.6311 92.1375 36.6737C92.1172 36.7162 92.1055 36.7624 92.1033 36.8095Z" fill="#263238"/>
<path d="M91.8842 36.2413C91.9308 36.2879 92.2106 36.081 92.6069 36.081C93.0031 36.081 93.2945 36.2821 93.3382 36.2326C93.3819 36.183 93.3149 36.1247 93.1867 36.0315C93.015 35.9141 92.8119 35.8511 92.6039 35.8508C92.3948 35.8498 92.1908 35.9151 92.0212 36.0373C91.9046 36.1306 91.8609 36.218 91.8842 36.2413Z" fill="#263238"/>
<path d="M90.4412 39.1869C90.2327 39.1197 90.0162 39.0805 89.7973 39.0703C89.6953 39.0703 89.5991 39.0383 89.5817 38.9713C89.5751 38.8697 89.5984 38.7684 89.6487 38.6799L89.9401 37.9077C90.3568 36.8092 90.6598 35.903 90.6132 35.8884C90.2834 36.5188 90.0048 37.1746 89.7798 37.8494C89.6778 38.1204 89.5846 38.3798 89.4884 38.6274C89.4248 38.7492 89.4062 38.8896 89.436 39.0237C89.4509 39.0593 89.4735 39.0911 89.5022 39.1168C89.531 39.1425 89.5651 39.1615 89.6021 39.1723C89.6593 39.1871 89.7179 39.1959 89.7769 39.1986C89.9979 39.2235 90.2212 39.2196 90.4412 39.1869Z" fill="#263238"/>
<path d="M90.5699 43.887C90.5699 43.887 92.1055 44.0123 94.0228 42.8584C94.0228 42.8584 93.4168 44.8981 90.5262 44.6067L90.5699 43.887Z" fill="#CD9382"/>
<path d="M90.6111 40.1428C90.6872 40.0484 90.7857 39.9746 90.8978 39.9283C91.0098 39.8819 91.1317 39.8645 91.2522 39.8777C91.3397 39.8861 91.4247 39.9118 91.5023 39.9533C91.5798 39.9948 91.6483 40.0513 91.7038 40.1195C91.7567 40.1861 91.788 40.2672 91.7937 40.352C91.7995 40.4368 91.7793 40.5214 91.7359 40.5945C91.6721 40.6661 91.5883 40.717 91.4953 40.7404C91.4023 40.7637 91.3044 40.7586 91.2143 40.7256C91.0273 40.6637 90.8549 40.5646 90.7073 40.4342C90.6624 40.4029 90.6238 40.3634 90.5937 40.3176C90.5794 40.2955 90.5717 40.2697 90.5717 40.2433C90.5717 40.217 90.5794 40.1912 90.5937 40.169" fill="#CD9382"/>
<path d="M91.6113 39.4609C91.5472 39.4609 91.5472 39.8892 91.1771 40.1952C90.8071 40.5011 90.3496 40.4545 90.3467 40.5128C90.3438 40.571 90.4487 40.5973 90.6381 40.6031C90.8903 40.6056 91.1356 40.5201 91.3316 40.3613C91.5191 40.2078 91.6394 39.9872 91.6667 39.7464C91.69 39.5658 91.6492 39.458 91.6113 39.4609Z" fill="#263238"/>
<path d="M91.7072 35.5448C91.745 35.6526 92.1413 35.6002 92.6075 35.6585C93.0737 35.7168 93.4525 35.8391 93.5137 35.743C93.54 35.6964 93.4759 35.5944 93.3243 35.4924C93.1213 35.3639 92.8918 35.2832 92.653 35.2564C92.4142 35.2297 92.1725 35.2576 91.9461 35.338C91.7742 35.4079 91.6897 35.4924 91.7072 35.5448Z" fill="#263238"/>
<path d="M88.1254 35.3525C88.1953 35.4428 88.4692 35.3525 88.7985 35.3525C89.1277 35.3525 89.4045 35.4137 89.4686 35.3175C89.4978 35.2709 89.4686 35.1806 89.3317 35.0961C89.1682 34.993 88.9776 34.9412 88.7844 34.9474C88.5911 34.9536 88.4042 35.0176 88.2477 35.1311C88.1312 35.2156 88.0933 35.3088 88.1254 35.3525Z" fill="#263238"/>
<path d="M86.8233 35.1225C87.4061 35.781 88.863 35.1225 89.6905 34.4785C90.2106 34.7122 90.8013 34.734 91.3372 34.5393C91.8731 34.3445 92.312 33.9485 92.5607 33.4354C93.1784 34.0181 94.2041 33.651 94.4838 32.8526C94.7635 32.0542 94.3935 31.0489 93.767 30.472C93.1434 29.9387 92.3496 29.6462 91.5292 29.6474C90.5825 29.6022 89.6434 29.835 88.8274 30.3171C88.0114 30.7991 87.3543 31.5093 86.9369 32.3601C86.5465 33.1906 86.395 34.2541 86.8233 35.1196" fill="#263238"/>
<path d="M93.6204 30.431C95.2842 29.8483 97.1811 31.3198 97.5307 32.5144C98.1368 34.5862 97.8891 34.8921 98.4224 35.8508C98.772 36.4744 99.7394 37.0163 100.171 37.6545C100.646 38.3305 100.823 39.566 100.681 40.3818C100.561 41.0695 99.9463 43.0276 99.9463 43.0276C99.9463 43.0276 97.3909 43.319 96.0418 43.1733C95.6958 43.1562 95.3591 43.0563 95.0598 42.8819C94.7684 42.6954 95.1764 41.8446 95.0831 41.5212C94.8121 40.6033 94.0312 40.1633 94.0982 39.2076C94.1856 37.94 95.1414 37.7506 94.9374 36.4802C94.8296 35.8129 93.6932 35 93.5067 34.3531C93.3202 33.7062 92.5976 31.4538 93.6087 30.4369" fill="#263238"/>
<path d="M97.7182 33.6713C97.7182 33.6713 97.6599 33.7121 97.5404 33.7412C97.3709 33.7832 97.1961 33.7999 97.0218 33.7908C96.7606 33.7776 96.5043 33.7143 96.2671 33.6043C95.9772 33.4681 95.7214 33.269 95.5182 33.0215C95.3318 32.7781 95.1187 32.5562 94.883 32.3601C94.6861 32.214 94.4652 32.1036 94.2303 32.0337C94.0071 31.9784 93.7802 31.9395 93.5514 31.9172C93.6106 31.89 93.6757 31.878 93.7408 31.8822C93.914 31.8724 94.0878 31.8881 94.2565 31.9288C94.5102 31.9899 94.7503 32.0976 94.9646 32.2464C95.2131 32.44 95.4372 32.6631 95.6319 32.9108C95.9806 33.3375 96.4828 33.6105 97.0305 33.6713C97.2595 33.6867 97.4892 33.6867 97.7182 33.6713Z" fill="#455A64"/>
<path d="M97.7239 33.409C97.7239 33.409 97.6511 33.444 97.5141 33.4323C97.318 33.4091 97.1322 33.3313 96.978 33.208C96.7542 33.0274 96.5681 32.8046 96.4302 32.5523C96.2748 32.2544 96.0893 31.9732 95.8765 31.7132C95.6681 31.4966 95.4156 31.3274 95.1361 31.2168C94.8566 31.1062 94.5566 31.0568 94.2564 31.0721C94.0041 31.0965 93.7551 31.1473 93.5134 31.2236C93.5134 31.2236 93.5688 31.1712 93.6911 31.1129C93.8677 31.0348 94.0556 30.9856 94.2477 30.9672C94.5687 30.9332 94.8933 30.9733 95.1964 31.0844C95.4995 31.1955 95.7731 31.3748 95.996 31.6083C96.2157 31.8776 96.4043 32.1708 96.5584 32.4824C96.6807 32.7252 96.8478 32.9427 97.0508 33.1235C97.2403 33.2858 97.4755 33.3856 97.7239 33.409Z" fill="#455A64"/>
<path d="M98.4552 43.3249C98.4552 43.3249 98.5601 43.1646 98.7466 42.8733C98.9964 42.462 99.1922 42.0203 99.3294 41.5591C99.5365 40.8801 99.5616 40.1587 99.4022 39.467C99.3058 39.0477 99.1275 38.6517 98.8774 38.3017C98.6274 37.9516 98.3106 37.6545 97.9453 37.4273C97.552 37.1942 97.1178 37.0368 96.7332 36.8008C96.3505 36.5783 96.0454 36.2437 95.859 35.8421C95.7045 35.4869 95.5797 35.1195 95.486 34.7436C95.404 34.4229 95.2918 34.1107 95.1509 33.8112C95.0552 33.5945 94.9145 33.4006 94.7382 33.2424C94.5619 33.0841 94.354 32.9652 94.1282 32.8933C93.9588 32.8507 93.7829 32.8399 93.6095 32.8613C93.6095 32.8613 93.6532 32.838 93.7436 32.8205C93.8753 32.7937 94.011 32.7937 94.1428 32.8205C94.3831 32.8854 94.6064 33.002 94.7971 33.162C94.9878 33.322 95.1414 33.5217 95.2471 33.7471C95.397 34.0504 95.5171 34.3675 95.6055 34.6941C95.702 35.0617 95.8297 35.4205 95.9872 35.7664C96.1619 36.1408 96.4478 36.4521 96.806 36.658C97.1732 36.8853 97.6073 37.0397 98.0182 37.2845C98.3998 37.5239 98.7297 37.8372 98.9884 38.206C99.2472 38.5748 99.4295 38.9917 99.5246 39.432C99.683 40.1474 99.6458 40.8922 99.4168 41.5883C99.2697 42.0547 99.0558 42.4974 98.7816 42.9024C98.7101 43.0127 98.6323 43.1187 98.5485 43.22C98.4931 43.2929 98.4611 43.3278 98.4552 43.3249Z" fill="#455A64"/>
<path d="M85.8619 44.0299C85.8619 44.0299 85.8298 44.0066 85.7832 43.9483C85.7158 43.8644 85.6545 43.7758 85.5996 43.6831C85.3958 43.338 85.263 42.9556 85.2092 42.5584C85.118 41.9653 85.1989 41.3585 85.4423 40.8101C85.5965 40.4984 85.7718 40.1976 85.9668 39.9097C86.1725 39.6148 86.3017 39.2733 86.3427 38.9161C86.3922 38.1818 86.0513 37.497 86.0047 36.8269C85.9316 36.2345 86.0088 35.6333 86.229 35.0785C86.3803 34.7083 86.6088 34.3745 86.8992 34.0995C86.9763 34.0242 87.0591 33.955 87.1469 33.8926C87.176 33.8679 87.2083 33.8473 87.2431 33.8314C87.2431 33.8314 87.1294 33.9392 86.9517 34.1403C86.6876 34.425 86.4799 34.7572 86.3398 35.1193C86.1423 35.6594 86.0783 36.2392 86.1533 36.8094C86.2006 37.1478 86.2707 37.4827 86.3631 37.8117C86.4722 38.1742 86.5205 38.5524 86.5058 38.9307C86.4616 39.3106 86.3245 39.6739 86.1067 39.9884C85.9134 40.2683 85.7382 40.5603 85.5822 40.8625C85.343 41.3854 85.2542 41.9646 85.3257 42.5351C85.3711 42.9211 85.4846 43.296 85.6608 43.6423C85.7803 43.8988 85.8735 44.0153 85.8619 44.0299Z" fill="#455A64"/>
<path d="M91.1997 29.9504C90.8303 29.9975 90.465 30.0725 90.107 30.1748C89.2522 30.4483 88.5123 30.9976 88.0032 31.7366C87.5296 32.4989 87.27 33.3745 87.2514 34.2717C87.2548 34.644 87.2899 35.0154 87.3563 35.3818C87.3055 35.2912 87.2701 35.1927 87.2514 35.0905C87.183 34.8208 87.1468 34.544 87.1436 34.2658C87.1311 33.3397 87.385 32.4294 87.875 31.6434C88.4007 30.8749 89.1791 30.315 90.0749 30.0612C90.3428 29.985 90.6185 29.94 90.8966 29.9271C90.9982 29.9193 91.1004 29.9272 91.1997 29.9504Z" fill="#455A64"/>
<path d="M89.2359 33.6858C89.1963 33.6075 89.1716 33.5225 89.1631 33.4352C89.1197 33.1969 89.1089 32.9538 89.131 32.7126C89.1625 32.3112 89.2758 31.9205 89.464 31.5645C89.6521 31.2085 89.911 30.8947 90.2249 30.6425C90.5388 30.3904 90.9009 30.205 91.2891 30.098C91.6772 29.991 92.0832 29.9645 92.482 30.0202C92.7213 30.0499 92.9555 30.1116 93.1784 30.2038C93.2635 30.2313 93.3426 30.2748 93.4115 30.332C93.1046 30.2354 92.7896 30.1671 92.4703 30.128C91.6981 30.047 90.9252 30.2744 90.3199 30.7607C89.7147 31.247 89.3261 31.9527 89.2389 32.7242C89.2095 33.044 89.2085 33.3658 89.2359 33.6858Z" fill="#455A64"/>
<path d="M102.504 75.1031L99.3546 62.9261L100.444 58.162L102.015 49.2194C102.015 49.2194 100.573 47.2467 96.837 47.0573L96.5865 45.2478L90.1906 45.4722L90.0711 47.1826C89.1213 47.4184 88.2319 47.8517 87.4608 48.4541C86.6896 49.0566 86.054 49.8147 85.5954 50.6792L81.0527 59.2226L68.6281 65.4408L70.2686 69.29C70.2686 69.29 82.7398 64.5637 83.7947 64.1004C84.4969 63.7944 85.2516 62.5007 85.9188 61.1137C86.4171 63.4972 86.9329 65.3854 86.9329 65.3854L86.8251 74.7272L102.504 75.1031Z" fill="#1976D2"/>
<path d="M96.9335 50.3849C96.9335 50.3849 96.7703 50.4315 96.4818 50.519C96.1933 50.6064 95.7767 50.7375 95.2638 50.9123C94.751 51.0872 94.1449 51.2999 93.4427 51.466C93.0726 51.5606 92.691 51.6028 92.3092 51.5913C91.8972 51.542 91.5002 51.407 91.1436 51.195C90.7765 50.9997 90.4385 50.7812 90.0947 50.6122C89.7668 50.4438 89.4207 50.3138 89.0632 50.2247C88.4548 50.0729 87.8238 50.0334 87.2012 50.1081C86.6273 50.1932 86.067 50.3528 85.5345 50.5831C85.5653 50.5562 85.5996 50.5336 85.6365 50.516C85.7369 50.457 85.8411 50.4044 85.9483 50.3587C86.3432 50.1844 86.7597 50.0639 87.1866 50.0003C88.2039 49.8508 89.2424 50.0177 90.1617 50.4782C90.5143 50.6559 90.8552 50.8744 91.2165 51.0609C91.5527 51.2619 91.9266 51.3919 92.315 51.4426C92.6817 51.4542 93.0483 51.4159 93.4048 51.329C94.0983 51.1746 94.7102 50.9677 95.2259 50.8103C95.7417 50.653 96.1642 50.519 96.4614 50.4607C96.61 50.4257 96.7266 50.4053 96.8053 50.3937C96.847 50.3824 96.8906 50.3794 96.9335 50.3849Z" fill="#FAFAFA"/>
<path d="M98.8602 56.5653C98.8602 56.5828 98.6154 56.5216 98.1667 56.4983C97.5355 56.4819 96.9058 56.5675 96.3018 56.7518C95.4077 57.0356 94.5384 57.3923 93.7027 57.8183C92.6736 58.3587 91.5698 58.7426 90.4275 58.9576C90.1235 59.0001 89.8165 59.0167 89.5097 59.0071C89.2096 58.9947 88.9117 58.9508 88.6209 58.876C88.0784 58.7207 87.5626 58.484 87.0912 58.1737C86.1908 57.591 85.4303 57.0082 84.6668 56.7664C84.0807 56.5332 83.4333 56.5034 82.8282 56.6819C82.6115 56.7632 82.4051 56.8698 82.2134 56.9995C82.2546 56.954 82.3005 56.913 82.3503 56.8771C82.4905 56.7727 82.6444 56.6884 82.8078 56.6265C83.4247 56.4209 84.0936 56.4343 84.7018 56.6644C85.4885 56.9062 86.2724 57.4977 87.1669 58.0543C87.6269 58.3543 88.13 58.5823 88.6588 58.7303C88.9392 58.8019 89.2263 58.8439 89.5155 58.8556C89.8136 58.8651 90.1119 58.8485 90.4071 58.8061C91.5342 58.5929 92.6245 58.218 93.6444 57.693C94.487 57.2698 95.3644 56.9198 96.2669 56.6469C96.8835 56.4689 97.5262 56.3989 98.1667 56.44C98.3394 56.4533 98.5108 56.4796 98.6795 56.5187C98.741 56.5291 98.8014 56.5447 98.8602 56.5653Z" fill="#FAFAFA"/>
<path d="M87.1982 52.3051C87.1982 52.3051 87.1982 52.3488 87.1691 52.4304C87.1399 52.5119 87.1108 52.6285 87.0583 52.78C86.9563 53.0714 86.7932 53.5143 86.5834 54.0417C86.3736 54.5691 86.1172 55.2072 85.887 55.9066C85.7655 56.2777 85.6682 56.6563 85.5956 57.0401C85.5094 57.4469 85.4761 57.8631 85.4965 58.2784C85.5544 59.0885 85.6732 59.8931 85.852 60.6853C86.0035 61.4196 86.1638 62.0752 86.2978 62.6288C86.4319 63.1825 86.5397 63.6283 86.6067 63.9401C86.6417 64.0945 86.665 64.2314 86.6795 64.2985C86.6916 64.3401 86.6965 64.3834 86.6941 64.4267C86.634 64.2731 86.5853 64.1153 86.5484 63.9546L86.19 62.6638C86.0443 62.1131 85.8724 61.4574 85.7121 60.7232C85.5232 59.9255 85.3994 59.1137 85.3421 58.2959C85.3205 57.8677 85.3557 57.4386 85.447 57.0197C85.5192 56.6311 85.6166 56.2476 85.7384 55.8716C85.9773 55.1548 86.2483 54.5312 86.4697 54.0097C86.6912 53.4881 86.8689 53.0627 86.9884 52.7684C87.0469 52.609 87.117 52.4541 87.1982 52.3051Z" fill="#263238"/>
<path d="M80.0832 65.5544C80.0074 65.5651 79.9301 65.556 79.8588 65.5282C79.6629 65.4668 79.4808 65.3679 79.3227 65.2368C79.0864 65.0439 78.881 64.8159 78.7137 64.5608C78.5246 64.2381 78.3925 63.8852 78.3232 63.5176C78.2525 63.165 78.1551 62.8182 78.0319 62.4803C77.9221 62.2114 77.7562 61.969 77.5453 61.7693C77.3454 61.5906 77.1006 61.4697 76.8372 61.4197C76.8372 61.4197 76.9159 61.3964 77.0616 61.4197C77.2665 61.4603 77.4574 61.5537 77.6152 61.6907C77.8506 61.8905 78.0371 62.1417 78.1601 62.4249C78.2992 62.7669 78.4065 63.121 78.4806 63.4827C78.5474 63.8342 78.6704 64.1726 78.8448 64.485C78.9972 64.734 79.1857 64.9589 79.4043 65.1523C79.5483 65.286 79.7125 65.3961 79.8909 65.4787C80.0074 65.5282 80.0861 65.5398 80.0832 65.5544Z" fill="#FAFAFA"/>
<path d="M72.9643 68.2703C72.9381 68.2703 72.9643 68.0139 72.9002 67.6059C72.8268 67.076 72.6848 66.5578 72.4777 66.0645C72.2761 65.57 72.0096 65.1046 71.6852 64.6804C71.4346 64.3541 71.2423 64.1851 71.2597 64.1647C71.4572 64.2786 71.6304 64.4301 71.7697 64.6105C72.1254 65.0272 72.4117 65.4985 72.6176 66.0062C72.8326 66.5109 72.9635 67.0473 73.0051 67.5943C73.0339 67.8202 73.0201 68.0495 72.9643 68.2703Z" fill="#FAFAFA"/>
<path d="M99.3956 62.8155C99.3956 62.8155 99.2121 62.8155 98.8828 62.8563C98.4166 62.9016 97.9553 62.9884 97.5046 63.1157C96.9218 63.2701 96.2691 63.512 95.529 63.78C94.728 64.0908 93.8984 64.3221 93.0522 64.4706C91.506 64.7068 89.9257 64.5709 88.4425 64.0743C87.9957 63.9222 87.5613 63.7362 87.1429 63.5178C86.9943 63.4391 86.8836 63.3721 86.8078 63.3284C86.7321 63.2847 86.6942 63.2468 86.6942 63.2468C86.8542 63.3106 87.0107 63.3826 87.1633 63.4624C87.5886 63.6582 88.0255 63.8275 88.4716 63.9694C89.9472 64.432 91.5089 64.5516 93.0376 64.3191C93.8745 64.1712 94.6959 63.9458 95.4911 63.646C96.2312 63.3867 96.9043 63.1506 97.4871 63.0079C97.9445 62.8877 98.4133 62.8164 98.8857 62.7952C99.0138 62.7874 99.1423 62.7874 99.2704 62.7952C99.3128 62.7962 99.355 62.8031 99.3956 62.8155Z" fill="#FAFAFA"/>
<g opacity="0.3">
<path d="M90.5228 47.1888C91.3647 47.6602 92.3125 47.9099 93.2774 47.9145C94.2422 47.9191 95.1924 47.6784 96.0387 47.2151C94.1894 47.3064 92.3381 47.3132 90.4849 47.2355" fill="black"/>
</g>
<path d="M96.7932 47.0197C96.7132 47.0605 96.6279 47.0899 96.5397 47.1071C96.3058 47.1752 96.0672 47.2258 95.8258 47.2586C95.0299 47.3619 94.2259 47.3892 93.4248 47.3402C92.4866 47.2994 91.6445 47.244 91.0326 47.2411C90.4206 47.2382 90.0418 47.2586 90.0418 47.2411C90.1266 47.2133 90.2149 47.1976 90.3041 47.1945C90.476 47.1712 90.7237 47.1537 91.0326 47.142C91.6474 47.1187 92.4895 47.1566 93.4306 47.1974C94.225 47.2448 95.0217 47.2322 95.8142 47.1595C96.4203 47.0867 96.7874 46.9934 96.7932 47.0197Z" fill="#263238"/>
<path d="M92.8723 60.4497C93.0442 60.7906 103.123 68.8299 106.014 71.129C106.114 71.2091 106.198 71.3084 106.26 71.421C106.322 71.5336 106.361 71.6574 106.375 71.7851C106.389 71.9129 106.378 72.0423 106.342 72.1657C106.306 72.2891 106.246 72.4042 106.165 72.5043L99.4401 80.8525C99.2793 81.0532 99.0457 81.182 98.7901 81.211C98.5346 81.2399 98.278 81.1665 98.0764 81.0069L85.1943 70.8084C85.0909 70.7266 85.0052 70.6246 84.9424 70.5086C84.8796 70.3926 84.841 70.2651 84.829 70.1337C84.817 70.0023 84.8319 69.8699 84.8726 69.7445C84.9134 69.619 84.9792 69.5032 85.0661 69.404L92.8723 60.4497Z" fill="#263238"/>
<path d="M92.7175 59.0247C92.8953 59.3772 103.688 67.9789 106.136 69.9254C106.264 70.0288 106.346 70.1788 106.364 70.3426C106.382 70.5064 106.335 70.6707 106.232 70.7995L99.0668 79.6984C98.9634 79.8267 98.8134 79.9088 98.6496 79.9268C98.4858 79.9448 98.3215 79.8973 98.1926 79.7946L84.7482 69.1357C84.6821 69.0835 84.6273 69.0184 84.587 68.9443C84.5468 68.8703 84.522 68.7889 84.5141 68.705C84.5062 68.6212 84.5154 68.5366 84.5411 68.4563C84.5668 68.3761 84.6085 68.3019 84.6636 68.2382L92.7175 59.0247Z" fill="#1976D2"/>
<path opacity="0.4" d="M92.7172 59.0247C92.895 59.3801 103.895 68.1421 106.202 69.9807C106.258 70.0246 106.304 70.0791 106.338 70.141C106.372 70.2028 106.393 70.2708 106.401 70.341C106.409 70.4112 106.402 70.4822 106.382 70.5499C106.362 70.6177 106.329 70.6807 106.284 70.7354L98.9995 79.7683C98.9103 79.8792 98.7809 79.9502 98.6395 79.966C98.4982 79.9819 98.3563 79.9412 98.2448 79.8528L84.6662 69.0716C84.6089 69.0267 84.5613 68.9705 84.5264 68.9066C84.4915 68.8427 84.4699 68.7723 84.4631 68.6997C84.4563 68.6272 84.4643 68.554 84.4867 68.4847C84.5091 68.4154 84.5454 68.3514 84.5934 68.2965L92.7172 59.0247Z" fill="black"/>
<path d="M93.831 59.1819C97.2489 62.0287 106.489 69.3804 106.489 69.3804L99.3265 78.2764C99.1191 78.5318 98.8198 78.6957 98.4928 78.7328C98.1659 78.7698 97.8374 78.6771 97.5782 78.4745L85.1477 68.6199C85.0145 68.514 84.9042 68.3823 84.8233 68.2327C84.7424 68.083 84.6927 67.9185 84.6772 67.7492C84.6617 67.5798 84.6807 67.409 84.733 67.2471C84.7853 67.0853 84.8699 66.9357 84.9816 66.8074L91.4707 59.38C91.7614 59.0469 92.1702 58.8399 92.6107 58.803C93.0512 58.766 93.4889 58.9019 93.831 59.1819Z" fill="#455A64"/>
<path d="M102.389 66.1022L102.57 67.361L105.845 70.1728L106.489 69.3715L102.389 66.1022Z" fill="#FAFAFA"/>
<path d="M92.8131 78.5271L95.9017 75.9513L94.4011 72.3789L92.3206 74.2671C91.8328 74.3967 91.3346 74.4835 90.8317 74.5264C90.5728 74.5522 90.3115 74.5325 90.0595 74.4681C89.7442 74.4016 89.4394 74.2928 89.1533 74.1447C88.9056 73.9786 88.588 74.203 88.6812 74.4536C88.7745 74.7042 89.4447 75.1762 90.3887 75.3277C91.2367 75.4588 90.278 76.0853 89.7331 76.4175C89.6851 76.4467 89.6496 76.4926 89.6335 76.5464C89.6173 76.6002 89.6217 76.6581 89.6457 76.7089C89.9284 77.3499 91.0415 79.4508 92.8131 78.5271Z" fill="#FFBE9D"/>
<path d="M97.7148 53.2348C97.4846 50.0296 100.46 46.7777 102.196 49.473C104.102 52.4277 108.277 59.3801 109.306 64.1006C109.787 66.3005 96.5987 76.7904 95.7858 77.4372C95.7625 77.4576 95.5498 77.1663 95.5323 77.1459L92.2717 73.7658C92.2571 73.7454 93.038 72.947 93.0584 72.9266L102.345 63.8296C102.351 63.8207 102.355 63.81 102.355 63.799C102.355 63.788 102.351 63.7773 102.345 63.7684C102.033 63.2002 97.9333 55.7203 97.7148 53.3106V53.2348Z" fill="#1976D2"/>
<path d="M105.052 63.7681C105.032 63.8264 104.417 63.6312 103.633 63.6137C102.85 63.5962 102.226 63.7448 102.209 63.6836C102.191 63.6224 102.818 63.3748 103.642 63.3922C104.467 63.4097 105.052 63.7186 105.052 63.7681Z" fill="#263238"/>
<path d="M104.469 64.7941C104.419 64.8349 104.044 64.4182 103.44 64.1122C102.837 63.8063 102.275 63.7305 102.289 63.6664C102.304 63.6023 102.893 63.5877 103.536 63.9257C104.18 64.2637 104.513 64.7678 104.469 64.7941Z" fill="#263238"/>
<path d="M102.345 63.8296C102.305 63.7764 102.271 63.7188 102.243 63.6577L101.978 63.1566L101.034 61.3004C100.241 59.7124 99.1605 57.5445 97.9687 55.1493C97.3444 54.035 96.9705 52.798 96.8731 51.5245C96.7915 50.3589 97.1295 49.2546 97.7472 48.6106C98.0239 48.3141 98.3706 48.0916 98.7554 47.9638C99.0438 47.8656 99.3495 47.8288 99.6529 47.8559C99.8438 47.8723 100.031 47.9195 100.207 47.9958C100.268 48.022 100.309 48.0512 100.338 48.0657C100.367 48.0803 100.381 48.092 100.378 48.0949C100.147 47.9943 99.9012 47.9333 99.65 47.9142C99.3526 47.8963 99.0548 47.941 98.7758 48.0453C98.4086 48.1758 98.0793 48.3951 97.8172 48.6835C97.2344 49.3216 96.9081 50.3852 96.9955 51.5303C97.1073 52.7815 97.4848 53.9944 98.1027 55.0881C99.2828 57.4891 100.349 59.6658 101.13 61.2596C101.506 62.0405 101.812 62.6758 102.031 63.1362L102.27 63.6519C102.299 63.7092 102.324 63.7686 102.345 63.8296Z" fill="#263238"/>
<g opacity="0.3">
<path d="M97.0339 51.434C96.6959 54.275 96.4512 57.148 96.7134 59.9948C96.8533 61.4955 98.4413 63.3749 99.6914 64.217L99.3563 62.9262C99.5398 62.0899 100.152 59.447 100.152 59.447C100.152 59.447 99.0124 57.1917 98.5579 56.3671C97.6838 54.8589 97.1628 53.1723 97.0339 51.434Z" fill="black"/>
</g>
<path d="M108.376 61.2739C108.376 61.2739 108.312 61.3467 108.175 61.4604C108.108 61.5157 108.021 61.5799 107.916 61.6498C107.811 61.7197 107.694 61.8013 107.557 61.88C107.238 62.068 106.905 62.2307 106.561 62.3666C106.139 62.532 105.704 62.6635 105.261 62.76C104.818 62.853 104.368 62.9095 103.915 62.929C103.544 62.9432 103.173 62.9257 102.805 62.8765C102.664 62.8598 102.523 62.8345 102.385 62.8008C102.28 62.7822 102.177 62.7559 102.076 62.7221C101.986 62.7037 101.899 62.6702 101.82 62.623C101.82 62.5968 102.199 62.7104 102.819 62.7687C103.182 62.8024 103.546 62.8102 103.909 62.792C104.353 62.7611 104.794 62.7007 105.229 62.6114C105.665 62.5156 106.093 62.3901 106.511 62.2355C106.851 62.1069 107.183 61.957 107.505 61.7867C108.053 61.4983 108.359 61.2535 108.376 61.2739Z" fill="#FAFAFA"/>
<path d="M102.963 71.0385C102.843 70.7729 102.746 70.4981 102.671 70.2168C102.467 69.5509 102.211 68.9021 101.905 68.2762C101.734 67.9351 101.532 67.6103 101.302 67.3058C101.114 67.0598 100.895 66.8385 100.652 66.6473C100.232 66.3239 99.9176 66.1986 99.9322 66.1724C100.011 66.1832 100.087 66.2079 100.157 66.2452C100.353 66.331 100.541 66.4364 100.716 66.5599C100.977 66.7467 101.211 66.9682 101.412 67.2184C101.654 67.5255 101.864 67.8565 102.039 68.2062C102.351 68.8396 102.597 69.5036 102.773 70.1876C102.865 70.4641 102.928 70.7492 102.963 71.0385Z" fill="#FAFAFA"/>
<path d="M99.5152 74.2582C99.2485 74.1969 98.9915 74.0988 98.7518 73.9668C98.1593 73.6826 97.6084 73.3189 97.1142 72.8857C96.6199 72.452 96.1858 71.9542 95.8234 71.4055C95.6618 71.1859 95.5342 70.9433 95.4446 70.6858C95.465 70.6858 95.6194 70.9422 95.9137 71.3443C96.6716 72.3951 97.6592 73.2591 98.8013 73.8706C99.2238 74.1154 99.5152 74.2349 99.5152 74.2582Z" fill="#FAFAFA"/>
<path d="M102.785 50.4257C102.716 50.4728 102.639 50.5064 102.558 50.5247C102.344 50.5909 102.124 50.6377 101.902 50.6646C101.34 50.7491 100.553 50.6996 99.708 50.7462C99.311 50.7631 98.9185 50.8367 98.5425 50.9647C98.2386 51.0717 97.9571 51.2337 97.712 51.4426C97.4925 51.6447 97.3084 51.882 97.1671 52.1448C97.1726 52.0615 97.1975 51.9807 97.24 51.9088C97.3372 51.7035 97.4726 51.5185 97.6392 51.3639C97.8857 51.1322 98.1759 50.9519 98.4929 50.8336C98.8791 50.6952 99.2837 50.6147 99.6934 50.5947C100.568 50.5481 101.334 50.6122 101.888 50.5568C102.441 50.5014 102.776 50.3965 102.785 50.4257Z" fill="#FAFAFA"/>
<path d="M105.796 55.8488C105.774 55.9372 105.73 56.0185 105.667 56.0848C105.512 56.2735 105.311 56.4207 105.085 56.5131C104.746 56.638 104.39 56.7098 104.03 56.7258C103.6 56.757 103.172 56.8125 102.748 56.8919C101.978 57.0431 101.227 57.2796 100.51 57.5971C99.9592 57.8418 99.6358 58.0312 99.6358 58.0108C99.6983 57.9479 99.77 57.8948 99.8485 57.8535C100.052 57.7245 100.262 57.6068 100.478 57.5009C101.191 57.1485 101.949 56.8937 102.73 56.7433C103.645 56.5452 104.508 56.6355 105.061 56.4111C105.355 56.2977 105.61 56.1025 105.796 55.8488Z" fill="#FAFAFA"/>
<path d="M33.7827 26.8789C34.3788 26.9246 34.9594 27.0904 35.4897 27.3663C36.02 27.6422 36.489 28.0225 36.8685 28.4844C37.6182 29.4125 38.1455 30.5 38.4099 31.6634C38.9927 33.8867 38.5993 36.5063 37.9466 38.7091C35.5485 37.835 34.0887 35.2533 33.4301 33.9013C32.3899 31.7596 31.8071 27.2635 33.7973 26.8789" fill="#1976D2"/>
<path d="M41.3672 41.4305C41.0123 40.8675 40.812 40.221 40.7864 39.556C40.7609 38.891 40.9109 38.231 41.2215 37.6425C41.5438 37.06 41.9787 36.5475 42.501 36.1348C43.0232 35.7221 43.6224 35.4174 44.2636 35.2385C44.8463 35.0637 45.534 34.9938 46.041 35.3405C46.2676 35.5172 46.4433 35.7508 46.5503 36.0174C46.6573 36.2841 46.6917 36.5743 46.65 36.8586C46.5551 37.4274 46.3119 37.9611 45.9449 38.4059C44.7618 39.9794 43.3224 41.2848 41.3672 41.4305Z" fill="#1976D2"/>
<g opacity="0.3">
<path d="M41.3668 41.4306C41.0119 40.8676 40.8116 40.2211 40.786 39.5561C40.7604 38.8911 40.9105 38.2311 41.2211 37.6426C41.5433 37.0601 41.9783 36.5476 42.5005 36.1349C43.0228 35.7222 43.622 35.4175 44.2631 35.2387C44.8459 35.0638 45.5336 34.9939 46.0406 35.3406C46.2672 35.5173 46.4429 35.7509 46.5499 36.0175C46.6569 36.2842 46.6913 36.5745 46.6496 36.8588C46.5547 37.4276 46.3115 37.9613 45.9444 38.406C44.7614 39.9795 43.322 41.2849 41.3668 41.4306Z" fill="white"/>
</g>
<path d="M38.8082 43.7878C38.0615 42.5996 37.0424 41.6064 35.8354 40.8904C34.6284 40.1744 33.2682 39.7562 31.8674 39.6706C31.1535 39.6356 30.3027 39.7725 29.9997 40.4165C29.6966 41.0605 30.1337 41.8093 30.629 42.3251C31.6815 43.3797 33.0225 44.0993 34.4832 44.3933C35.9438 44.6873 37.4588 44.5425 38.8374 43.9772" fill="#1976D2"/>
<g opacity="0.3">
<path d="M38.8086 43.7878C38.0619 42.5996 37.0428 41.6064 35.8358 40.8904C34.6288 40.1744 33.2686 39.7562 31.8679 39.6706C31.154 39.6356 30.3031 39.7725 30.0001 40.4165C29.697 41.0605 30.1341 41.8093 30.6295 42.3251C31.682 43.3797 33.023 44.0993 34.4836 44.3933C35.9443 44.6873 37.4592 44.5425 38.8378 43.9772" fill="white"/>
</g>
<path d="M41.3876 49.0649C41.3401 48.911 41.307 48.7529 41.2885 48.5929C41.2361 48.2869 41.1632 47.844 41.0904 47.2962C40.8708 45.8641 40.8385 44.4096 40.9942 42.9692C41.1621 41.5174 41.7154 40.1371 42.5969 38.9714C42.8677 38.624 43.1798 38.3109 43.5264 38.0389C43.6199 37.9641 43.7171 37.8941 43.8178 37.8291C43.8514 37.8034 43.8887 37.7827 43.9285 37.7679C43.4678 38.1438 43.0496 38.5688 42.6814 39.0355C41.8417 40.2018 41.3123 41.5624 41.1428 42.9896C40.9928 44.4184 41.0113 45.86 41.1982 47.2846C41.2594 47.812 41.3089 48.252 41.3468 48.5841C41.3718 48.7432 41.3855 48.9039 41.3876 49.0649Z" fill="#263238"/>
<path d="M34.5374 30.2648C34.5727 30.3237 34.6039 30.385 34.6306 30.4483C34.6918 30.5853 34.7734 30.763 34.8724 30.9874C35.0793 31.4536 35.3707 32.1355 35.7262 32.9805C36.4343 34.6676 37.3813 37.0132 38.3691 39.627C39.3569 42.2407 40.199 44.6271 40.7846 46.3638C41.076 47.2379 41.3091 47.9343 41.4636 48.421C41.5335 48.6541 41.5918 48.8435 41.6355 48.9862C41.6607 49.05 41.6783 49.1165 41.6879 49.1844C41.6544 49.1242 41.6271 49.0607 41.6063 48.995C41.5568 48.8551 41.4898 48.6715 41.4053 48.4414C41.2305 47.9431 40.9828 47.2496 40.6827 46.4017C40.0707 44.6767 39.2257 42.296 38.2292 39.6852C37.2327 37.0744 36.309 34.7317 35.6271 33.0242L34.8171 31.0136C34.7297 30.7863 34.6568 30.6028 34.6015 30.4629C34.5727 30.3995 34.5512 30.333 34.5374 30.2648Z" fill="#263238"/>
<path d="M33.0046 41.5123C33.1585 41.5093 33.3124 41.518 33.4649 41.5385C33.6441 41.5522 33.8223 41.5775 33.9982 41.6143C34.235 41.6525 34.4694 41.7041 34.7004 41.7687L35.1025 41.8794C35.2424 41.9202 35.3939 41.9785 35.5309 42.0281C35.8432 42.1426 36.1496 42.2729 36.4487 42.4185C37.8287 43.0905 39.036 44.0705 39.9774 45.2828C40.1843 45.5742 40.3882 45.8335 40.5602 46.1045C40.6417 46.2386 40.7263 46.3639 40.7933 46.4921L40.9856 46.865C41.1138 47.0981 41.1954 47.3254 41.277 47.5177C41.3484 47.6835 41.4088 47.8539 41.4576 48.0277C41.51 48.1728 41.551 48.3219 41.58 48.4735C41.545 48.4735 41.376 47.847 40.8865 46.9146C40.8224 46.798 40.7583 46.6756 40.6884 46.5503C40.6184 46.425 40.5339 46.3056 40.4494 46.1745C40.2691 45.8965 40.0746 45.6281 39.8667 45.3702C38.9262 44.1864 37.7389 43.2218 36.3875 42.5438C36.0728 42.3981 35.7785 42.2524 35.4842 42.1475C35.3415 42.0951 35.1929 42.0339 35.0676 41.9902L34.6713 41.8707C33.6631 41.5822 32.9987 41.5473 33.0046 41.5123Z" fill="#263238"/>
<path d="M36.8239 46.9116H45.4576V51.9642C45.4576 52.914 45.0803 53.8249 44.4088 54.4965C43.7372 55.1681 42.8263 55.5454 41.8765 55.5454H40.405C39.4553 55.5454 38.5444 55.1681 37.8728 54.4965C37.2012 53.8249 36.8239 52.914 36.8239 51.9642V46.9116Z" fill="#1976D2"/>
<path opacity="0.3" d="M36.8239 46.9116H45.4576V51.9642C45.4576 52.914 45.0803 53.8249 44.4088 54.4965C43.7372 55.1681 42.8263 55.5454 41.8765 55.5454H40.405C39.4553 55.5454 38.5444 55.1681 37.8728 54.4965C37.2012 53.8249 36.8239 52.914 36.8239 51.9642V46.9116Z" fill="black"/>
<path d="M42.6583 46.929C42.6394 47.0192 42.606 47.1059 42.5592 47.1854C42.4494 47.4096 42.3207 47.624 42.1746 47.8264C41.694 48.5023 41.0574 49.0521 40.3187 49.429C39.58 49.8059 38.7613 49.9989 37.932 49.9914C37.683 49.9912 37.4344 49.9698 37.189 49.9273C37.0974 49.9185 37.0078 49.8949 36.9238 49.8574C36.9238 49.8311 37.3085 49.9069 37.9291 49.8865C38.7367 49.8625 39.5288 49.6595 40.2484 49.2921C40.9679 48.9248 41.597 48.4023 42.0901 47.7623C42.4689 47.2786 42.6321 46.929 42.6583 46.929Z" fill="#FAFAFA"/>
<path d="M45.3764 52.7569C45.2766 52.7543 45.1781 52.7346 45.085 52.6987C44.8366 52.6192 44.5981 52.5117 44.374 52.3781C43.6195 51.9359 43.0479 51.2387 42.762 50.4122C42.4762 49.5857 42.495 48.6843 42.8151 47.8704C42.9098 47.6277 43.031 47.3961 43.1764 47.1798C43.2267 47.0985 43.2886 47.0249 43.36 46.9613C43.1907 47.2664 43.0428 47.5828 42.9171 47.9083C42.6361 48.7006 42.633 49.565 42.9084 50.3594C43.1837 51.1537 43.7212 51.8307 44.4323 52.2791C44.7356 52.4599 45.0511 52.6196 45.3764 52.7569Z" fill="#FAFAFA"/>
<path d="M43.165 55.3093C43.1569 54.8781 43.0963 54.4496 42.9843 54.0331C42.8439 53.5893 42.6259 53.174 42.3404 52.8063C41.9896 52.3583 41.5564 51.9814 41.0641 51.6962C40.1537 51.1865 39.1038 50.9823 38.0687 51.1134C37.6406 51.1844 37.2173 51.2817 36.8011 51.4048C36.9022 51.3443 37.0097 51.2955 37.1217 51.2591C37.4233 51.1479 37.7359 51.0688 38.0541 51.0231C39.1154 50.8529 40.203 51.047 41.1399 51.5738C41.6503 51.8709 42.0962 52.2672 42.4511 52.7393C42.741 53.1233 42.9564 53.5582 43.0863 54.0214C43.1726 54.3325 43.2128 54.6544 43.2058 54.9772C43.2059 55.0891 43.1922 55.2007 43.165 55.3093Z" fill="#FAFAFA"/>
<path d="M44.3957 55.5455H17.2183V134.432H44.3957V55.5455Z" fill="#263238"/>
<path d="M58.9853 55.5457H29.2291V134.432H58.9853V55.5457Z" fill="#455A64"/>
<path d="M57.6564 77.9357H31.1375V94.2212H57.6564V77.9357Z" fill="#455A64"/>
<path d="M40.075 116.393H49.1575V116.804C49.1594 116.888 49.1445 116.971 49.1135 117.049C49.0825 117.127 49.0362 117.198 48.9772 117.258C48.9182 117.318 48.8478 117.365 48.7701 117.397C48.6925 117.429 48.6092 117.446 48.5252 117.445H40.7044C40.5383 117.445 40.3789 117.379 40.2614 117.261C40.1439 117.144 40.0779 116.984 40.0779 116.818V116.407L40.075 116.393Z" fill="#263238"/>
<path d="M57.598 116.393C57.598 116.393 57.598 116.489 57.598 116.684C57.598 116.879 57.598 117.162 57.598 117.529C57.598 118.281 57.598 119.377 57.598 120.784C57.598 123.619 57.6184 127.696 57.6301 132.687V132.745H57.5718L31.0558 132.763H30.9655V132.687C30.9655 126.923 30.9655 121.425 30.9655 116.422V116.352H31.0354L50.1677 116.369H55.6283H57.0852H57.4552H57.5776H57.4465H57.0677H55.6108L50.1327 116.393L31.047 116.442L31.117 116.372C31.117 121.375 31.117 126.862 31.117 132.637L31.0412 132.562L57.5572 132.576L57.496 132.637C57.496 127.661 57.5223 123.604 57.5281 120.772C57.5281 119.359 57.5281 118.258 57.5427 117.503C57.5427 117.13 57.5427 116.844 57.5427 116.646C57.5922 116.495 57.598 116.393 57.598 116.393Z" fill="#263238"/>
<path d="M48.805 120.37H40.9084V122.503H48.805V120.37Z" fill="#E0E0E0"/>
<path d="M57.6564 96.0629H31.1375V112.348H57.6564V96.0629Z" fill="#455A64"/>
<path d="M40.0395 98.1752H49.122V98.586C49.122 98.7522 49.056 98.9115 48.9385 99.029C48.821 99.1465 48.6616 99.2125 48.4955 99.2125H40.6572C40.4911 99.2125 40.3317 99.1465 40.2143 99.029C40.0968 98.9115 40.0308 98.7522 40.0308 98.586V98.1752H40.0395Z" fill="#263238"/>
<path d="M57.8488 98.1752C57.8488 98.1752 57.8488 98.2714 57.8488 98.4666C57.8488 98.6618 57.8488 98.9445 57.8488 99.3116C57.8488 100.063 57.8488 101.159 57.8633 102.566C57.8633 105.402 57.8837 109.478 57.8954 114.469V114.528H57.8488L31.3328 114.531H31.2424V114.455C31.2424 108.691 31.2424 103.193 31.2424 98.1898V98.1199H31.3124L50.4447 98.1374L55.9052 98.1519H57.3622H57.7322H57.8488H57.7177H57.3389H55.8819L50.4039 98.1752L31.3182 98.2277L31.3881 98.1548C31.3881 103.158 31.3881 108.645 31.3881 114.42L31.3124 114.344L57.8284 114.359L57.7672 114.42C57.7818 109.443 57.7934 105.387 57.7992 102.555C57.7992 101.142 57.7992 100.04 57.7992 99.2854C57.7992 98.9124 57.7992 98.6269 57.7992 98.4287C57.8488 98.2801 57.8488 98.1752 57.8488 98.1752Z" fill="#263238"/>
<path d="M48.5306 102.027H40.634V104.16H48.5306V102.027Z" fill="#E0E0E0"/>
<path d="M40.1357 57.7104H49.2182V58.1213C49.2182 58.2875 49.1522 58.4468 49.0347 58.5643C48.9172 58.6818 48.7579 58.7478 48.5917 58.7478H40.7622C40.5961 58.7478 40.4367 58.6818 40.3192 58.5643C40.2017 58.4468 40.1357 58.2875 40.1357 58.1213V57.7104Z" fill="#263238"/>
<path d="M57.6565 57.7108C57.6565 57.7108 57.6565 57.8041 57.6565 58.0022C57.6565 58.2004 57.6565 58.4801 57.6565 58.8502C57.6565 59.599 57.6565 60.6975 57.671 62.1049C57.671 64.9372 57.6885 69.0137 57.7031 74.0051V74.0633H57.6419L31.1259 74.0779H31.0414V74.0022C31.0414 68.2386 31.0414 62.7431 31.0414 57.74V57.67H31.1113L50.2407 57.6875H55.7042H57.1611H57.5312H57.6536H57.5224H57.1465H55.6896L50.2145 57.7108L31.1288 57.7633L31.1987 57.6934C31.1987 62.6964 31.1987 68.1832 31.1987 73.9555L31.123 73.8798L57.639 73.8973L57.5807 73.9555C57.5807 68.9787 57.604 64.9226 57.6128 62.0904C57.6128 60.68 57.6128 59.5786 57.6273 58.8239C57.6273 58.451 57.6273 58.1654 57.6273 57.9673C57.6273 57.7691 57.6565 57.7108 57.6565 57.7108Z" fill="#263238"/>
<path d="M48.4837 61.1665H40.5872V63.2994H48.4837V61.1665Z" fill="#E0E0E0"/>
<path d="M31.2222 83.2157V77.0966C31.2222 76.8431 31.3229 76.6 31.5022 76.4208C31.6814 76.2416 31.9245 76.1409 32.178 76.1409H48.478C48.7276 76.1409 48.967 76.24 49.1435 76.4165C49.32 76.593 49.4192 76.8324 49.4192 77.082V83.2011L31.2222 83.2157Z" fill="#1976D2"/>
<path opacity="0.3" d="M31.2222 83.2157V77.0966C31.2222 76.8431 31.3229 76.6 31.5022 76.4208C31.6814 76.2416 31.9245 76.1409 32.178 76.1409H48.478C48.7276 76.1409 48.967 76.24 49.1435 76.4165C49.32 76.593 49.4192 76.8324 49.4192 77.082V83.2011L31.2222 83.2157Z" fill="black"/>
<path d="M32.889 83.2155V77.8365C32.889 77.8112 32.8986 77.7868 32.916 77.7684C32.9333 77.75 32.957 77.7389 32.9823 77.7374H49.4193V83.2155H32.889Z" fill="#FAFAFA"/>
<path d="M53.1235 76.7061L52.6544 83.2156H34.9644L35.4365 77.1752C35.4831 76.5925 35.8852 76.1496 36.366 76.1525L44.9706 76.1991C44.9557 76.027 45.0081 75.8559 45.1168 75.7217C45.2255 75.5874 45.3819 75.5006 45.5533 75.4794H52.1969C52.7418 75.4852 53.1701 76.0476 53.1235 76.7061Z" fill="#1976D2"/>
<path d="M38.4664 82.5832V76.4642C38.4664 76.3384 38.4912 76.2139 38.5394 76.0978C38.5876 75.9816 38.6583 75.8761 38.7473 75.7873C38.8364 75.6985 38.9421 75.6282 39.0584 75.5803C39.1747 75.5325 39.2993 75.508 39.425 75.5084H55.7251C55.9747 75.5084 56.2141 75.6076 56.3906 75.7841C56.5671 75.9606 56.6663 76.2 56.6663 76.4496V82.5862L38.4664 82.5832Z" fill="#1976D2"/>
<path opacity="0.3" d="M38.4664 82.5832V76.4642C38.4664 76.3384 38.4912 76.2139 38.5394 76.0978C38.5876 75.9816 38.6583 75.8761 38.7473 75.7873C38.8364 75.6985 38.9421 75.6282 39.0584 75.5803C39.1747 75.5325 39.2993 75.508 39.425 75.5084H55.7251C55.9747 75.5084 56.2141 75.6076 56.3906 75.7841C56.5671 75.9606 56.6663 76.2 56.6663 76.4496V82.5862L38.4664 82.5832Z" fill="black"/>
<path d="M40.1358 82.5831V77.2013C40.1354 77.1888 40.1375 77.1763 40.142 77.1647C40.1465 77.153 40.1533 77.1424 40.162 77.1334C40.1707 77.1245 40.1812 77.1173 40.1927 77.1125C40.2042 77.1076 40.2165 77.1051 40.229 77.1051H56.666V82.5831H40.1358Z" fill="#FAFAFA"/>
<path d="M60.3693 76.0681L59.8886 82.5834H42.2073L42.6969 76.5401C42.6959 76.2846 42.7908 76.038 42.963 75.8491C43.1351 75.6602 43.3718 75.5429 43.6264 75.5202L52.231 75.564C52.2161 75.3919 52.2685 75.2208 52.3772 75.0865C52.4859 74.9523 52.6423 74.8655 52.8137 74.8442H59.4486C59.9876 74.8442 60.416 75.4124 60.3693 76.0681Z" fill="#1976D2"/>
<path d="M48.5485 82.9355V76.8164C48.5481 76.6907 48.5725 76.5661 48.6204 76.4498C48.6682 76.3335 48.7386 76.2278 48.8274 76.1388C48.9161 76.0497 49.0216 75.979 49.1378 75.9308C49.2539 75.8826 49.3785 75.8578 49.5042 75.8578H65.8043C65.9281 75.8578 66.0507 75.8822 66.1651 75.9297C66.2795 75.9772 66.3834 76.0468 66.4708 76.1345C66.5582 76.2222 66.6275 76.3263 66.6746 76.4408C66.7218 76.5553 66.7458 76.678 66.7454 76.8019V82.9355H48.5485Z" fill="#1976D2"/>
<path opacity="0.3" d="M48.5485 82.9355V76.8164C48.5481 76.6907 48.5725 76.5661 48.6204 76.4498C48.6682 76.3335 48.7386 76.2278 48.8274 76.1388C48.9161 76.0497 49.0216 75.979 49.1378 75.9308C49.2539 75.8826 49.3785 75.8578 49.5042 75.8578H65.8043C65.9281 75.8578 66.0507 75.8822 66.1651 75.9297C66.2795 75.9772 66.3834 76.0468 66.4708 76.1345C66.5582 76.2222 66.6275 76.3263 66.6746 76.4408C66.7218 76.5553 66.7458 76.678 66.7454 76.8019V82.9355H48.5485Z" fill="black"/>
<path d="M50.2179 82.9357V77.5567C50.2171 77.5317 50.2261 77.5073 50.2429 77.4888C50.2598 77.4703 50.2832 77.4591 50.3082 77.4576H66.7452V82.9357H50.2179Z" fill="#FAFAFA"/>
<path d="M67.718 76.056H51.045V85.8291H67.718V76.056Z" fill="#E0E0E0"/>
<path d="M69.0907 71.7175H52.2894V82.1374H69.0907V71.7175Z" fill="#F5F5F5"/>
<path d="M55.3524 81.4789C55.3087 81.4789 55.2766 79.6781 55.2766 77.4578C55.2766 75.2374 55.3087 73.4366 55.3524 73.4366C55.3961 73.4366 55.4281 75.2374 55.4281 77.4578C55.4281 79.6781 55.3932 81.4789 55.3524 81.4789Z" fill="#263238"/>
<path d="M56.5437 81.4789C56.5029 81.4789 56.468 79.6781 56.468 77.4578C56.468 75.2374 56.5029 73.4366 56.5437 73.4366C56.5845 73.4366 56.6195 75.2374 56.6195 77.4578C56.6195 79.6781 56.5874 81.4789 56.5437 81.4789Z" fill="#263238"/>
<path d="M57.8489 81.4789C57.8052 81.4789 57.7731 79.6781 57.7731 77.4578C57.7731 75.2374 57.8052 73.4366 57.8489 73.4366C57.8926 73.4366 57.9246 75.2374 57.9246 77.4578C57.9246 79.6781 57.8868 81.4789 57.8489 81.4789Z" fill="#263238"/>
<path d="M59.1464 81.4789C59.1056 81.4789 59.0707 79.6781 59.0707 77.4578C59.0707 75.2374 59.1056 73.4366 59.1464 73.4366C59.1872 73.4366 59.2222 75.2374 59.2222 77.4578C59.2222 79.6781 59.1872 81.4789 59.1464 81.4789Z" fill="#263238"/>
<path d="M60.4453 81.4789C60.4045 81.4789 60.3695 79.6781 60.3695 77.4578C60.3695 75.2374 60.4045 73.4366 60.4453 73.4366C60.4861 73.4366 60.521 75.2374 60.521 77.4578C60.521 79.6781 60.489 81.4789 60.4453 81.4789Z" fill="#263238"/>
<path d="M61.7479 81.4789C61.7042 81.4789 61.6722 79.6781 61.6722 77.4578C61.6722 75.2374 61.7042 73.4366 61.7479 73.4366C61.7917 73.4366 61.8237 75.2374 61.8237 77.4578C61.8237 79.6781 61.7887 81.4789 61.7479 81.4789Z" fill="#263238"/>
<path d="M63.0468 81.4789C63.006 81.4789 62.971 79.6781 62.971 77.4578C62.971 75.2374 63.006 73.4366 63.0468 73.4366C63.0876 73.4366 63.1225 75.2374 63.1225 77.4578C63.1225 79.6781 63.0934 81.4789 63.0468 81.4789Z" fill="#263238"/>
<path d="M64.3469 81.4789C64.3061 81.4789 64.2711 79.6781 64.2711 77.4578C64.2711 75.2374 64.3061 73.4366 64.3469 73.4366C64.3877 73.4366 64.4226 75.2374 64.4226 77.4578C64.4226 79.6781 64.3906 81.4789 64.3469 81.4789Z" fill="#263238"/>
<path d="M65.6486 81.4789C65.6049 81.4789 65.5699 79.6781 65.5699 77.4578C65.5699 75.2374 65.6049 73.4366 65.6486 73.4366C65.6923 73.4366 65.7244 75.2374 65.7244 77.4578C65.7244 79.6781 65.6894 81.4789 65.6486 81.4789Z" fill="#263238"/>
<path d="M66.9496 81.4789C66.9059 81.4789 66.8738 79.6781 66.8738 77.4578C66.8738 75.2374 66.9059 73.4366 66.9496 73.4366C66.9933 73.4366 67.0254 75.2374 67.0254 77.4578C67.0254 79.6781 66.9904 81.4789 66.9496 81.4789Z" fill="#263238"/>
<path d="M70.4485 77.5774L69.9823 82.9359H52.2894L52.7644 77.962C52.7862 77.7314 52.8932 77.5173 53.0646 77.3615C53.236 77.2058 53.4594 77.1196 53.691 77.1199L62.2985 77.1578C62.2985 77.0032 62.3599 76.855 62.4692 76.7457C62.5785 76.6364 62.7267 76.575 62.8813 76.575H69.5161C69.6449 76.5738 69.7726 76.5994 69.8909 76.6503C70.0093 76.7011 70.1157 76.7761 70.2035 76.8704C70.2912 76.9648 70.3583 77.0764 70.4005 77.1981C70.4427 77.3198 70.4591 77.449 70.4485 77.5774Z" fill="#1976D2"/>
<path d="M57.5894 79.9576H31.0704V96.2431H57.5894V79.9576Z" fill="#263238"/>
<path d="M73.6357 79.9576H47.1168V96.2431H73.6357V79.9576Z" fill="#455A64"/>
<path d="M73.6364 96.1734C73.6364 96.1734 73.6364 96.0715 73.6364 95.8821C73.6364 95.6927 73.6364 95.4013 73.6364 95.0312C73.6364 94.2853 73.6364 93.1926 73.6364 91.791C73.6364 88.9879 73.616 84.9551 73.6043 80.0132L73.6626 80.0744L47.1466 80.089L47.2223 80.0132C47.2223 85.7419 47.2223 91.2053 47.2223 96.1764L47.1524 96.1064L66.2265 96.1414L71.7016 96.1589H73.1585H73.5344H73.6655H73.5431H73.1731H71.7162L66.2556 96.1793L47.1349 96.2113H47.065V96.1734C47.065 91.2024 47.065 85.739 47.065 80.0103V79.9346H47.1437L73.6597 79.9521H73.7209V80.0103C73.7209 84.9639 73.6947 89.0112 73.6888 91.8231C73.6888 93.2188 73.6888 94.3086 73.6743 95.0516C73.6743 95.4188 73.6743 95.6985 73.6743 95.8908C73.6422 96.0715 73.6364 96.1734 73.6364 96.1734Z" fill="#263238"/>
<path d="M56.6602 79.9576H65.7427V80.316C65.7427 80.4822 65.6767 80.6415 65.5592 80.759C65.4417 80.8765 65.2824 80.9425 65.1162 80.9425H57.2867C57.1205 80.9425 56.9612 80.8765 56.8437 80.759C56.7262 80.6415 56.6602 80.4822 56.6602 80.316V79.9576Z" fill="#263238"/>
<path d="M65.3206 83.6088H57.4241V85.7417H65.3206V83.6088Z" fill="#E0E0E0"/>
<path d="M64.9906 69.8091C64.7438 70.8269 64.5965 71.8661 64.5506 72.9124C64.5506 73.0464 64.5506 73.2038 64.6672 73.2766C64.7837 73.3494 64.9585 73.1484 65.0547 73.0289C65.2412 72.8162 65.9288 71.6244 65.9288 71.6244C66.4118 71.5803 66.8617 71.3604 67.1931 71.0064C67.5245 70.6524 67.7144 70.189 67.7267 69.7042" fill="#FFBE9D"/>
<path d="M67.7177 69.7042C67.7278 69.7757 67.7278 69.8483 67.7177 69.9198C67.6995 70.1208 67.6494 70.3175 67.5691 70.5026C67.4432 70.7889 67.2515 71.0415 67.0097 71.2398C66.6963 71.4888 66.3201 71.6461 65.9228 71.6944L65.9753 71.6594C65.7567 72.0382 65.5149 72.452 65.241 72.8716C65.1973 72.9328 65.1594 72.994 65.1069 73.0581C65.0545 73.1222 65.0166 73.1688 64.9612 73.2271C64.905 73.295 64.8284 73.343 64.7427 73.364C64.6921 73.369 64.6412 73.3576 64.5976 73.3313C64.554 73.3051 64.5201 73.2654 64.5009 73.2183C64.453 73.0758 64.441 72.9237 64.4659 72.7754C64.4659 72.6414 64.4834 72.5103 64.495 72.3821C64.5331 71.9266 64.5943 71.4734 64.6786 71.0242C64.7485 70.6425 64.8214 70.3365 64.8797 70.1267C64.901 70.0159 64.9362 69.9082 64.9846 69.8062C64.9816 69.9185 64.9649 70.0301 64.935 70.1384C64.8971 70.354 64.8389 70.66 64.7835 71.0446C64.7281 71.4292 64.6699 71.8838 64.6349 72.3908L64.6087 72.7842C64.5897 72.907 64.5987 73.0324 64.6349 73.1513C64.6553 73.1979 64.6961 73.2242 64.7194 73.2183C64.7713 73.1977 64.8173 73.1647 64.8534 73.1222L64.9904 72.959C65.0342 72.9039 65.075 72.8465 65.1128 72.7871C65.3838 72.3733 65.6285 71.9595 65.8529 71.5866L65.8704 71.5545H65.9053C66.2789 71.5144 66.6345 71.3734 66.9339 71.1466C67.1687 70.9663 67.3582 70.7339 67.4876 70.4677C67.595 70.2234 67.6723 69.9671 67.7177 69.7042Z" fill="#EB996E"/>
</svg>
