<svg width="183" height="137" viewBox="0 0 183 137" fill="none" xmlns="http://www.w3.org/2000/svg">
<path d="M182.761 119.823H0.239746V119.914H182.761V119.823Z" fill="#E0E0E0"/>
<path d="M138.101 123.688H125.544V123.779H138.101V123.688Z" fill="#E0E0E0"/>
<path d="M40.7738 123.732H33.7065V123.823H40.7738V123.732Z" fill="#E0E0E0"/>
<path d="M91.8653 123.52H77.541V123.611H91.8653V123.52Z" fill="#E0E0E0"/>
<path d="M77.1758 122.221H70.7729V122.312H77.1758V122.221Z" fill="#E0E0E0"/>
<path d="M155.222 122.268H135.878V122.359H155.222V122.268Z" fill="#E0E0E0"/>
<path d="M86.7547 103.541H16.2687C15.7165 103.541 15.1873 103.32 14.7972 102.93C14.4071 102.539 14.188 102.009 14.188 101.457V2.37375C14.1928 1.82474 14.414 1.29979 14.8036 0.912937C15.1932 0.52608 15.7197 0.308558 16.2687 0.307617H86.7547C87.3075 0.307617 87.8377 0.527222 88.2286 0.918121C88.6195 1.30902 88.8391 1.83919 88.8391 2.39201V101.457C88.8391 102.01 88.6195 102.54 88.2286 102.931C87.8377 103.322 87.3075 103.541 86.7547 103.541ZM16.2687 0.380626C15.7407 0.381593 15.2347 0.592009 14.8617 0.965688C14.4887 1.33937 14.2792 1.84578 14.2792 2.37375V101.457C14.2792 101.985 14.4887 102.491 14.8617 102.865C15.2347 103.239 15.7407 103.449 16.2687 103.45H86.7547C87.283 103.449 87.7894 103.239 88.163 102.865C88.5365 102.492 88.7468 101.985 88.7478 101.457V2.37375C88.7468 1.84544 88.5365 1.33904 88.163 0.965465C87.7894 0.59189 87.283 0.381591 86.7547 0.380626H16.2687Z" fill="#E0E0E0"/>
<path d="M165.717 103.541H95.227C94.6744 103.541 94.1448 103.321 93.7542 102.93C93.3635 102.539 93.1435 102.01 93.1426 101.457V2.37375C93.1483 1.82441 93.3704 1.29946 93.7605 0.912708C94.1507 0.525952 94.6776 0.308547 95.227 0.307617H165.717C166.265 0.309517 166.791 0.527463 167.179 0.914218C167.568 1.30097 167.789 1.82537 167.794 2.37375V101.457C167.794 102.009 167.575 102.538 167.186 102.928C166.796 103.319 166.268 103.54 165.717 103.541ZM95.227 0.380626C94.6987 0.381591 94.1923 0.59189 93.8187 0.965465C93.4451 1.33904 93.2348 1.84544 93.2338 2.37375V101.457C93.2348 101.985 93.4451 102.492 93.8187 102.865C94.1923 103.239 94.6987 103.449 95.227 103.45H165.717C166.245 103.449 166.751 103.239 167.125 102.865C167.498 102.492 167.709 101.985 167.71 101.457V2.37375C167.709 1.84544 167.498 1.33904 167.125 0.965465C166.751 0.59189 166.245 0.381591 165.717 0.380626H95.227Z" fill="#E0E0E0"/>
<path d="M160.606 74.1297C156.116 67.2924 160.216 59.9441 159.533 52.3367C158.851 44.7292 151.623 43.0719 152.992 36.6399C154.576 29.1638 150.352 21.9907 145.567 21.9907C140.781 21.9907 136.561 29.1455 138.145 36.6289C139.514 43.0719 132.305 44.7328 131.604 52.3257C130.903 59.9186 135.021 67.2924 130.527 74.1187C126.033 80.945 127.216 90.009 129.746 94.5027C130.419 95.695 131.23 96.8038 132.162 97.8063C133.877 99.6468 135.952 101.115 138.258 102.118C140.565 103.122 143.053 103.64 145.569 103.64C148.084 103.64 150.572 103.122 152.879 102.118C155.185 101.115 157.26 99.6468 158.975 97.8063C159.905 96.8028 160.715 95.6941 161.388 94.5027C163.921 90.02 165.1 80.9815 160.606 74.1297Z" fill="#E0E0E0"/>
<path d="M145.566 79.3171C145.865 79.3171 146.16 79.3759 146.435 79.49C146.711 79.6041 146.961 79.7713 147.172 79.9822C147.383 80.193 147.55 80.4433 147.664 80.7188C147.778 80.9943 147.837 81.2895 147.837 81.5877V119.822H143.296V81.5877C143.296 81.2895 143.355 80.9943 143.469 80.7188C143.583 80.4433 143.75 80.193 143.961 79.9822C144.172 79.7713 144.422 79.6041 144.698 79.49C144.973 79.3759 145.268 79.3171 145.566 79.3171Z" fill="#F0F0F0"/>
<path d="M117.021 119.822H110.848V81.5914C110.85 80.772 111.176 79.9867 111.755 79.4072C112.335 78.8278 113.12 78.5014 113.94 78.4995C114.759 78.5014 115.544 78.8278 116.124 79.4072C116.703 79.9867 117.03 80.772 117.031 81.5914L117.021 119.822Z" fill="#E0E0E0"/>
<path d="M113.928 109.51C124.446 109.51 132.972 100.983 132.972 90.4656C132.972 79.9478 124.446 71.4214 113.928 71.4214C103.41 71.4214 94.8838 79.9478 94.8838 90.4656C94.8838 100.983 103.41 109.51 113.928 109.51Z" fill="#F0F0F0"/>
<path d="M136.306 84.7513C137.306 80.7285 134.855 76.6573 130.832 75.658C126.809 74.6588 122.738 77.1098 121.739 81.1326C120.739 85.1554 123.19 89.2266 127.213 90.2258C131.236 91.2251 135.307 88.7741 136.306 84.7513Z" fill="#F0F0F0"/>
<path d="M102.908 79.2111C103.303 76.7895 101.659 74.5066 99.2378 74.1122C96.8162 73.7179 94.5333 75.3613 94.1389 77.7829C93.7445 80.2046 95.3879 82.4874 97.8096 82.8818C100.231 83.2762 102.514 81.6328 102.908 79.2111Z" fill="#F0F0F0"/>
<path d="M103.357 79.3172C105.078 79.3172 106.474 77.9215 106.474 76.1997C106.474 74.478 105.078 73.0823 103.357 73.0823C101.635 73.0823 100.239 74.478 100.239 76.1997C100.239 77.9215 101.635 79.3172 103.357 79.3172Z" fill="#F0F0F0"/>
<path d="M74.7084 97.0035C71.7471 97.4446 68.917 98.5245 66.4147 100.168C66.3928 97.2773 65.8635 94.5359 64.5055 92.32C62.4394 94.3314 60.7638 96.9378 59.3949 99.7414C58.8948 94.4884 57.5113 89.3778 54.4486 86.1399C49.86 89.0274 47.4946 93.8386 46.3702 98.9346C44.5128 95.4985 41.8168 92.5878 38.5328 90.4729C35.7256 93.4298 34.8276 97.5182 34.9043 101.709C31.7138 97.9928 28.1729 95.0944 24.7196 94.7549C23.869 100.628 25.6797 106.17 27.9831 110.55C29.4785 113.361 31.7126 115.71 34.4446 117.344C37.1766 118.979 40.3028 119.837 43.4864 119.826H58.486C64.8779 119.826 70.8719 116.416 73.8688 110.769C75.7634 107.192 76.6687 102.589 74.7084 97.0035Z" fill="#E0E0E0"/>
<path d="M70.4226 21.166C72.2733 15.7379 70.7876 11.8721 66.272 11.8721C63.432 11.8721 59.9094 13.3943 56.478 15.8693C56.091 14.4566 54.9995 13.6133 53.2437 13.6133C50.1518 13.6133 45.8918 16.227 42.5516 19.9139C41.6112 19.0205 40.3662 18.5181 39.0691 18.5085C36.1086 18.3406 32.5276 19.8446 29.4138 22.2867C29.2577 22.0683 29.0517 21.8905 28.813 21.7679C28.5742 21.6453 28.3096 21.5817 28.0412 21.5822C26.3365 21.4873 24.0257 23.0058 22.8832 24.9698C22.8138 25.0902 22.7517 25.2107 22.686 25.3348H71.3206C71.4666 23.6191 71.1636 22.1882 70.4226 21.166Z" fill="#F0F0F0"/>
<path d="M70.5723 54.1258C71.4776 51.4756 70.7585 49.5884 68.5464 49.5884C67.1555 49.5884 65.4362 50.3185 63.7607 51.5414C63.6704 51.2007 63.4617 50.9033 63.1721 50.7026C62.8824 50.502 62.5307 50.411 62.18 50.4462C60.6724 50.4462 58.5917 51.7239 56.9563 53.5272C56.4979 53.0893 55.8891 52.8437 55.2552 52.8409C53.795 52.7569 52.0611 53.4907 50.5388 54.6844C50.465 54.5788 50.3674 54.4921 50.2539 54.4312C50.1404 54.3703 50.0142 54.337 49.8854 54.3339C49.0531 54.2865 47.9251 55.0275 47.3666 55.9876L47.2681 56.1628H71.025C71.1243 55.4515 70.9636 54.7282 70.5723 54.1258Z" fill="#F0F0F0"/>
<path d="M125.365 34.0704C125.178 34.0441 124.989 34.0307 124.8 34.0303C124.975 31.3837 123.964 29.6899 121.799 29.6899C120.24 29.6899 118.324 30.5733 116.375 32.0664C116.933 26.9266 115.144 23.5864 111.092 23.5864C107.829 23.5864 103.693 25.7767 99.6081 29.303C99.2431 27.288 98.0458 26.076 96.0234 26.076C92.4716 26.076 87.423 29.814 83.3747 35.0853C82.9134 34.4774 82.3218 33.9806 81.6434 33.6313C80.965 33.282 80.2169 33.089 79.4542 33.0666C76.0739 32.8293 71.8722 34.9757 68.1379 38.4728C68.002 38.1779 67.7857 37.9273 67.5139 37.7498C67.2421 37.5722 66.9257 37.4749 66.601 37.469C64.7503 37.3376 62.2205 39.2686 60.7202 41.8495H128.341C129.929 37.9362 128.665 34.5121 125.365 34.0704Z" fill="#F0F0F0"/>
<path d="M91.5002 136.307C130.59 136.307 162.278 134.457 162.278 132.175C162.278 129.893 130.59 128.043 91.5002 128.043C52.4106 128.043 20.7222 129.893 20.7222 132.175C20.7222 134.457 52.4106 136.307 91.5002 136.307Z" fill="#F5F5F5"/>
<path d="M18.0757 35.1909L101.294 47.1716L112.461 58.4404L18.0757 35.1909Z" fill="#407BFF"/>
<path opacity="0.6" d="M18.0757 35.1909L101.294 47.1716L112.461 58.4404L18.0757 35.1909Z" fill="white"/>
<path d="M18.0757 35.1909L101.294 47.1716L97.4322 63.4671L18.0757 35.1909Z" fill="#407BFF"/>
<path opacity="0.2" d="M18.0757 35.1909L101.294 47.1716L97.4322 63.4671L18.0757 35.1909Z" fill="black"/>
<path d="M18.0757 35.1909L86.7145 51.5046L97.4322 63.4671L18.0757 35.1909Z" fill="#407BFF"/>
<path opacity="0.6" d="M18.0757 35.1909L86.7145 51.5046L97.4322 63.4671L18.0757 35.1909Z" fill="white"/>
<path d="M43.1137 50.9152L42.9292 51.2302L50.5675 55.7044L50.752 55.3895L43.1137 50.9152Z" fill="#407BFF"/>
<path d="M54.1244 57.3623L53.9399 57.6772L56.6866 59.2861L56.8711 58.9711L54.1244 57.3623Z" fill="#407BFF"/>
<path d="M18.0757 35.1909L86.7145 51.5046L73.3722 67.5847L18.0757 35.1909Z" fill="#407BFF"/>
<path d="M109.884 73.411C109.792 73.4112 109.7 73.3939 109.614 73.3599L98.4363 68.9356C98.2575 68.8636 98.1144 68.7237 98.0383 68.5466C97.9622 68.3694 97.9592 68.1694 98.0301 67.9901C98.1009 67.8108 98.2399 67.6668 98.4165 67.5895C98.5931 67.5123 98.7931 67.508 98.9729 67.5777L110.154 72.002C110.312 72.0645 110.444 72.1803 110.526 72.3293C110.608 72.4784 110.635 72.6514 110.603 72.8184C110.571 72.9854 110.481 73.1361 110.35 73.2443C110.219 73.3525 110.054 73.4114 109.884 73.411Z" fill="#407BFF"/>
<path opacity="0.3" d="M109.884 73.411C109.792 73.4112 109.7 73.3939 109.614 73.3599L98.4363 68.9356C98.2575 68.8636 98.1144 68.7237 98.0383 68.5466C97.9622 68.3694 97.9592 68.1694 98.0301 67.9901C98.1009 67.8108 98.2399 67.6668 98.4165 67.5895C98.5931 67.5123 98.7931 67.508 98.9729 67.5777L110.154 72.002C110.312 72.0645 110.444 72.1803 110.526 72.3293C110.608 72.4784 110.635 72.6514 110.603 72.8184C110.571 72.9854 110.481 73.1361 110.35 73.2443C110.219 73.3525 110.054 73.4114 109.884 73.411Z" fill="black"/>
<path d="M109.223 67.0009C109.131 67.0003 109.041 66.9817 108.957 66.9461L102.952 64.5551C102.862 64.5203 102.78 64.4681 102.71 64.4015C102.641 64.3349 102.585 64.2552 102.547 64.167C102.508 64.0788 102.487 63.9838 102.485 63.8875C102.484 63.7913 102.501 63.6956 102.536 63.6061C102.572 63.5165 102.625 63.4349 102.692 63.3658C102.759 63.2967 102.839 63.2416 102.927 63.2036C103.016 63.1656 103.111 63.1454 103.207 63.1443C103.303 63.1432 103.399 63.1612 103.488 63.1972L109.493 65.5772C109.673 65.6481 109.818 65.7874 109.895 65.9647C109.972 66.1419 109.976 66.3426 109.906 66.5227C109.854 66.6625 109.761 66.7833 109.639 66.8688C109.517 66.9543 109.372 67.0004 109.223 67.0009Z" fill="#407BFF"/>
<path opacity="0.5" d="M109.223 67.0009C109.131 67.0003 109.041 66.9817 108.957 66.9461L102.952 64.5551C102.862 64.5203 102.78 64.4681 102.71 64.4015C102.641 64.3349 102.585 64.2552 102.547 64.167C102.508 64.0788 102.487 63.9838 102.485 63.8875C102.484 63.7913 102.501 63.6956 102.536 63.6061C102.572 63.5165 102.625 63.4349 102.692 63.3658C102.759 63.2967 102.839 63.2416 102.927 63.2036C103.016 63.1656 103.111 63.1454 103.207 63.1443C103.303 63.1432 103.399 63.1612 103.488 63.1972L109.493 65.5772C109.673 65.6481 109.818 65.7874 109.895 65.9647C109.972 66.1419 109.976 66.3426 109.906 66.5227C109.854 66.6625 109.761 66.7833 109.639 66.8688C109.517 66.9543 109.372 67.0004 109.223 67.0009Z" fill="white"/>
<path d="M96.6693 73.316C96.5781 73.3149 96.4879 73.2976 96.4028 73.2649L85.499 68.9355C85.4092 68.9007 85.3272 68.8485 85.2577 68.7819C85.1882 68.7153 85.1325 68.6356 85.0939 68.5474C85.0553 68.4591 85.0346 68.3642 85.0328 68.2679C85.0311 68.1716 85.0484 68.076 85.0838 67.9864C85.1192 67.8969 85.1719 67.8152 85.239 67.7462C85.3061 67.6771 85.3862 67.6219 85.4746 67.5839C85.5631 67.5459 85.6582 67.5258 85.7545 67.5247C85.8507 67.5236 85.9463 67.5416 86.0356 67.5775L96.9394 71.8923C97.0976 71.9549 97.229 72.0706 97.3109 72.2197C97.3928 72.3688 97.4201 72.5417 97.3881 72.7088C97.3561 72.8758 97.2667 73.0264 97.1355 73.1346C97.0043 73.2428 96.8394 73.3018 96.6693 73.3014V73.316Z" fill="#407BFF"/>
<path opacity="0.3" d="M96.6693 73.316C96.5781 73.3149 96.4879 73.2976 96.4028 73.2649L85.499 68.9355C85.4092 68.9007 85.3272 68.8485 85.2577 68.7819C85.1882 68.7153 85.1325 68.6356 85.0939 68.5474C85.0553 68.4591 85.0346 68.3642 85.0328 68.2679C85.0311 68.1716 85.0484 68.076 85.0838 67.9864C85.1192 67.8969 85.1719 67.8152 85.239 67.7462C85.3061 67.6771 85.3862 67.6219 85.4746 67.5839C85.5631 67.5459 85.6582 67.5258 85.7545 67.5247C85.8507 67.5236 85.9463 67.5416 86.0356 67.5775L96.9394 71.8923C97.0976 71.9549 97.229 72.0706 97.3109 72.2197C97.3928 72.3688 97.4201 72.5417 97.3881 72.7088C97.3561 72.8758 97.2667 73.0264 97.1355 73.1346C97.0043 73.2428 96.8394 73.3018 96.6693 73.3014V73.316Z" fill="black"/>
<path d="M136.145 40.3965C137.112 42.2838 137.999 44.1747 138.842 46.1094C139.686 48.0441 140.47 50.0044 141.157 52.0596L141.405 52.8371C141.449 52.9758 141.511 53.2022 141.547 53.3628C141.584 53.5234 141.617 53.7059 141.635 53.8592C141.718 54.4482 141.761 55.0422 141.763 55.637C141.768 56.734 141.717 57.8306 141.609 58.9224C141.405 61.0358 141.074 63.135 140.616 65.2084L138.612 64.9857C138.587 62.9305 138.568 60.8534 138.495 58.8274C138.463 57.8199 138.404 56.8088 138.302 55.8597C138.256 55.414 138.183 54.9715 138.083 54.5346C138.065 54.4323 138.036 54.3557 138.014 54.2717C137.992 54.1878 137.97 54.1586 137.933 54.0491L137.656 53.3591C136.893 51.512 136.035 49.6503 135.159 47.7959L132.509 42.2326L136.145 40.3965Z" fill="#E4897B"/>
<path d="M138.642 64.343L137.708 66.0916L140.694 66.9239C140.694 66.9239 141.263 65.5185 140.584 64.4087L138.642 64.343Z" fill="#E4897B"/>
<path d="M136.564 68.6103L139.31 68.8294L140.693 66.9238L137.707 66.0916L136.564 68.6103Z" fill="#E4897B"/>
<path d="M123.576 27.7805C123.536 27.9959 123.387 28.1455 123.248 28.1163C123.109 28.0871 123.032 27.8937 123.076 27.6819C123.12 27.4702 123.266 27.3169 123.405 27.3461C123.544 27.3753 123.624 27.5688 123.576 27.7805Z" fill="#263238"/>
<path d="M123.409 28.1455C123.023 28.7427 122.558 29.2844 122.025 29.7553C122.15 29.8876 122.301 29.9913 122.469 30.0594C122.638 30.1274 122.819 30.1582 123 30.1496L123.409 28.1455Z" fill="#DE5753"/>
<path d="M124.591 26.7625C124.556 26.7616 124.524 26.7472 124.5 26.7223C124.395 26.6024 124.263 26.5088 124.115 26.4492C123.968 26.3896 123.808 26.3656 123.649 26.3792C123.619 26.3795 123.589 26.369 123.566 26.3497C123.543 26.3304 123.527 26.3034 123.522 26.2736C123.517 26.2438 123.522 26.2131 123.537 26.187C123.553 26.1609 123.577 26.141 123.605 26.1309C123.808 26.1052 124.014 26.1301 124.206 26.2033C124.397 26.2766 124.567 26.3959 124.7 26.5507C124.724 26.5746 124.737 26.6067 124.737 26.6402C124.737 26.6736 124.724 26.7057 124.7 26.7296C124.686 26.743 124.668 26.7529 124.649 26.7586C124.63 26.7643 124.61 26.7656 124.591 26.7625Z" fill="#263238"/>
<path d="M129.614 30.7627C129.231 32.7266 128.848 36.3186 130.22 37.6291C130.22 37.6291 129.684 39.6186 126.037 39.6186C122.021 39.6186 124.124 37.6291 124.124 37.6291C126.314 37.1071 126.252 35.4827 125.873 33.9605L129.614 30.7627Z" fill="#E4897B"/>
<path d="M130.771 38.867C131.059 37.9069 131.377 36.8081 130.72 36.4613C129.99 36.0963 126.022 35.6948 124.653 36.4066C123.284 37.1184 123.675 39.0714 123.675 39.0714L130.771 38.867Z" fill="#263238"/>
<path d="M139.189 129.897C139.076 129.912 138.961 129.904 138.85 129.874C138.74 129.844 138.637 129.792 138.547 129.722C138.515 129.678 138.498 129.625 138.498 129.57C138.498 129.516 138.515 129.463 138.547 129.419C138.568 129.381 138.597 129.348 138.631 129.322C138.666 129.297 138.705 129.278 138.748 129.269C139.142 129.182 139.879 129.685 139.912 129.707C139.922 129.715 139.929 129.725 139.933 129.737C139.938 129.748 139.939 129.761 139.938 129.773C139.936 129.785 139.93 129.796 139.922 129.804C139.913 129.813 139.902 129.818 139.89 129.82C139.66 129.87 139.425 129.896 139.189 129.897ZM138.854 129.386H138.777C138.752 129.391 138.729 129.402 138.709 129.417C138.689 129.432 138.672 129.451 138.66 129.474C138.602 129.576 138.638 129.62 138.66 129.634C138.773 129.788 139.321 129.788 139.722 129.722C139.461 129.549 139.164 129.437 138.854 129.393V129.386Z" fill="#407BFF"/>
<path d="M139.875 129.831H139.846C139.569 129.678 139.032 129.101 139.087 128.795C139.096 128.747 139.122 128.705 139.159 128.674C139.196 128.644 139.243 128.627 139.291 128.627C139.339 128.622 139.388 128.626 139.434 128.64C139.481 128.654 139.524 128.677 139.561 128.707C139.872 128.963 139.927 129.737 139.927 129.769C139.928 129.781 139.926 129.793 139.921 129.803C139.916 129.814 139.907 129.822 139.897 129.828C139.89 129.831 139.883 129.832 139.875 129.831ZM139.335 128.736H139.321C139.237 128.736 139.229 128.787 139.226 128.802C139.193 128.981 139.536 129.423 139.81 129.631C139.791 129.326 139.682 129.033 139.496 128.791C139.471 128.772 139.443 128.758 139.413 128.75C139.383 128.742 139.351 128.739 139.321 128.744L139.335 128.736Z" fill="#407BFF"/>
<path d="M123.087 129.897C122.744 129.897 122.412 129.85 122.299 129.697C122.27 129.656 122.255 129.607 122.255 129.558C122.255 129.508 122.27 129.46 122.299 129.419C122.321 129.382 122.351 129.349 122.386 129.323C122.421 129.298 122.461 129.279 122.503 129.269C122.945 129.149 123.887 129.682 123.927 129.704C123.938 129.711 123.946 129.721 123.951 129.732C123.956 129.744 123.958 129.757 123.956 129.77C123.954 129.782 123.948 129.794 123.939 129.803C123.93 129.812 123.918 129.819 123.905 129.821C123.635 129.871 123.362 129.897 123.087 129.897ZM122.66 129.379C122.62 129.373 122.58 129.373 122.54 129.379C122.514 129.384 122.49 129.394 122.468 129.409C122.447 129.425 122.429 129.444 122.416 129.467C122.368 129.547 122.386 129.583 122.416 129.605C122.536 129.773 123.215 129.784 123.719 129.715C123.391 129.538 123.031 129.426 122.66 129.386V129.379Z" fill="#407BFF"/>
<path d="M123.898 129.832H123.872C123.547 129.689 122.909 129.101 122.956 128.806C122.956 128.733 123.018 128.645 123.193 128.627C123.259 128.617 123.325 128.622 123.388 128.641C123.451 128.66 123.509 128.692 123.558 128.736C123.902 129.014 123.971 129.737 123.975 129.769C123.976 129.781 123.974 129.792 123.97 129.802C123.965 129.812 123.958 129.821 123.949 129.828C123.941 129.832 123.933 129.835 123.924 129.835C123.915 129.836 123.906 129.835 123.898 129.832ZM123.244 128.736H123.204C123.091 128.736 123.084 128.795 123.08 128.809C123.051 128.992 123.489 129.448 123.81 129.645C123.779 129.339 123.651 129.05 123.445 128.82C123.393 128.775 123.328 128.748 123.259 128.744L123.244 128.736Z" fill="#407BFF"/>
<path d="M126.847 129.766H124.164L123.898 123.557H126.581L126.847 129.766Z" fill="#E4897B"/>
<path d="M142.949 129.766H140.266L138.919 123.557H141.598L142.949 129.766Z" fill="#E4897B"/>
<path d="M140.076 129.456H143.088C143.142 129.456 143.194 129.475 143.236 129.509C143.277 129.542 143.306 129.589 143.318 129.642L143.847 132.026C143.859 132.084 143.858 132.144 143.844 132.201C143.83 132.259 143.802 132.312 143.765 132.358C143.727 132.404 143.679 132.44 143.625 132.465C143.571 132.489 143.512 132.502 143.453 132.5C142.402 132.482 141.891 132.42 140.566 132.42C139.751 132.42 138.072 132.508 136.944 132.508C135.816 132.508 135.674 131.412 136.134 131.292C138.2 130.839 138.978 130.215 139.638 129.624C139.758 129.515 139.915 129.455 140.076 129.456Z" fill="#263238"/>
<path d="M124.182 129.456H127.102C127.156 129.456 127.208 129.475 127.25 129.509C127.292 129.542 127.321 129.589 127.332 129.642L127.862 132.026C127.874 132.083 127.874 132.143 127.86 132.2C127.847 132.257 127.82 132.311 127.783 132.357C127.746 132.402 127.699 132.439 127.645 132.464C127.592 132.489 127.534 132.501 127.475 132.5C126.42 132.482 124.894 132.42 123.565 132.42C122.014 132.42 120.67 132.508 118.849 132.508C117.754 132.508 117.443 131.412 117.903 131.292C120.002 130.832 121.714 130.785 123.529 129.668C123.722 129.536 123.949 129.463 124.182 129.456Z" fill="#263238"/>
<path d="M122.894 42.3386C120.651 42.1649 118.42 41.8687 116.21 41.4516C115.115 41.2398 113.998 41.0026 112.888 40.7032C111.75 40.4121 110.633 40.0463 109.544 39.6081C109.263 39.4913 108.978 39.3635 108.697 39.243C108.381 39.0872 108.076 38.9091 107.785 38.7101C107.259 38.3633 106.806 38.0019 106.357 37.6442C105.463 36.9141 104.634 36.184 103.802 35.4357C102.17 33.9244 100.622 32.362 99.1294 30.7193L100.473 29.219L105.77 33.0264C106.642 33.6543 107.525 34.2712 108.394 34.8516C108.825 35.14 109.267 35.4101 109.672 35.6401C109.841 35.7367 110.017 35.8221 110.197 35.8956C110.413 35.9796 110.632 36.0635 110.862 36.1438C112.835 36.7513 114.852 37.2029 116.896 37.4945C118.98 37.823 121.134 38.0932 123.215 38.3122L122.894 42.3386Z" fill="#E4897B"/>
<path d="M135.021 38.2357C137.536 38.8125 140.076 46.1608 140.076 46.1608L134.904 49.8732C134.904 49.8732 133.444 46.4491 132.035 43.4558C130.56 40.3201 132.451 37.648 135.021 38.2357Z" fill="#407BFF"/>
<path opacity="0.4" d="M135.021 38.2357C137.536 38.8125 140.076 46.1608 140.076 46.1608L134.904 49.8732C134.904 49.8732 133.444 46.4491 132.035 43.4558C130.56 40.3201 132.451 37.648 135.021 38.2357Z" fill="black"/>
<path d="M133.571 42.251L132.545 44.5471C133.608 46.8396 134.579 49.1101 134.838 49.7161C134.801 47.0038 134.287 43.6381 133.571 42.251Z" fill="#407BFF"/>
<path opacity="0.6" d="M133.571 42.251L132.545 44.5471C133.608 46.8396 134.579 49.1101 134.838 49.7161C134.801 47.0038 134.287 43.6381 133.571 42.251Z" fill="black"/>
<path d="M119.999 38.3741C119.999 38.3741 117.145 41.5974 119.839 61.5543H134.181C134.283 59.364 132.9 48.6099 135.021 38.2354C133.435 37.9301 131.832 37.7277 130.221 37.6294C128.19 37.5125 126.155 37.5125 124.124 37.6294C122.732 37.7697 121.353 38.0187 119.999 38.3741Z" fill="#407BFF"/>
<path opacity="0.4" d="M119.999 38.3741C119.999 38.3741 117.145 41.5974 119.839 61.5543H134.181C134.283 59.364 132.9 48.6099 135.021 38.2354C133.435 37.9301 131.832 37.7277 130.221 37.6294C128.19 37.5125 126.155 37.5125 124.124 37.6294C122.732 37.7697 121.353 38.0187 119.999 38.3741Z" fill="black"/>
<path d="M118.937 42.251C118.842 43.0066 118.769 43.901 118.721 44.9559C120.138 44.5308 121.483 43.8986 122.715 43.0796L118.937 42.251Z" fill="#407BFF"/>
<path opacity="0.6" d="M118.937 42.251C118.842 43.0066 118.769 43.901 118.721 44.9559C120.138 44.5308 121.483 43.8986 122.715 43.0796L118.937 42.251Z" fill="black"/>
<path d="M125.084 42.6523C123.164 44.3534 115.834 44.1819 115.834 44.1819L115.593 37.0854C118.068 37.438 120.565 37.6186 123.065 37.6257C127.15 37.5418 127.179 40.776 125.084 42.6523Z" fill="#407BFF"/>
<path opacity="0.4" d="M125.084 42.6523C123.164 44.3534 115.834 44.1819 115.834 44.1819L115.593 37.0854C118.068 37.438 120.565 37.6186 123.065 37.6257C127.15 37.5418 127.179 40.776 125.084 42.6523Z" fill="black"/>
<path d="M100.542 29.2331L98.7171 27.083L96.7495 29.2733C96.7495 29.2733 97.9614 31.3102 99.8852 30.989L100.542 29.2331Z" fill="#E4897B"/>
<path d="M96.1032 24.5754L95.395 27.3826L96.7347 29.2589L98.7023 27.0833L96.1032 24.5754Z" fill="#E4897B"/>
<path d="M123.898 123.56L124.037 126.758H126.72L126.581 123.56H123.898Z" fill="#CE6F64"/>
<path d="M141.602 123.56H138.919L139.613 126.758H142.296L141.602 123.56Z" fill="#CE6F64"/>
<path d="M125.511 25.1304C123.105 24.0353 122.346 19.1693 129.267 20.3849C129.267 20.3849 128.223 21.5384 130.34 22.2685C132.458 22.9986 130.687 27.5069 125.511 25.1304Z" fill="#263238"/>
<path d="M130.739 28.781C130.049 31.3363 129.779 32.8914 128.183 33.961C125.796 35.5672 122.828 33.7237 122.733 30.9968C122.649 28.5474 123.792 24.7546 126.548 24.2363C127.156 24.117 127.785 24.1555 128.374 24.3483C128.963 24.541 129.493 24.8815 129.914 25.3372C130.334 25.793 130.63 26.3488 130.775 26.9517C130.919 27.5545 130.907 28.1843 130.739 28.781Z" fill="#E4897B"/>
<path d="M129.173 21.6623C130.812 22.5749 133.031 23.1225 132.823 24.422C132.549 26.0099 134.163 25.017 133.787 27.3789C133.542 28.923 130.695 33.6028 128.676 33.3765C125.661 33.0114 126.044 28.4265 126.033 26.0099C126.026 24.5826 125.96 19.8626 129.173 21.6623Z" fill="#263238"/>
<path d="M125.671 23.7102C124.941 23.8818 123.974 28.0907 126.803 28.4777C130.056 28.9194 125.671 23.7102 125.671 23.7102Z" fill="#263238"/>
<path d="M125.745 25.2036C124.85 25.2839 122.824 24.207 123.073 22.5862C123.073 22.5753 124.354 24.4808 125.745 25.2036Z" fill="#263238"/>
<path d="M127.073 28.8137C126.799 29.4156 126.333 29.9097 125.748 30.2191C124.978 30.6207 124.544 30.0366 124.719 29.2627C124.876 28.5691 125.467 27.5215 126.259 27.4375C127.051 27.3536 127.391 28.0836 127.073 28.8137Z" fill="#E4897B"/>
<path d="M131.089 25.8603C131.634 25.6236 132.113 25.2552 132.481 24.7883C132.849 24.3213 133.096 23.7703 133.199 23.1846C133.199 23.1846 134.403 26.532 131.089 25.8603Z" fill="#263238"/>
<path d="M134.134 25.8056C133.88 25.635 133.587 25.53 133.283 25.5001C132.978 25.4701 132.671 25.5161 132.389 25.634C132.389 25.634 133.513 24.1775 134.134 25.8056Z" fill="#263238"/>
<path d="M124.927 61.5539C124.927 61.5539 127.971 82.0474 129.639 89.7242C131.465 98.1202 138.364 126.141 138.364 126.141H143.274C143.274 126.141 138.729 98.8101 137.685 90.4725C136.553 81.4377 134.181 61.5393 134.181 61.5393L124.927 61.5539Z" fill="#407BFF"/>
<path opacity="0.5" d="M124.927 61.5539C124.927 61.5539 127.971 82.0474 129.639 89.7242C131.465 98.1202 138.364 126.141 138.364 126.141H143.274C143.274 126.141 138.729 98.8101 137.685 90.4725C136.553 81.4377 134.181 61.5393 134.181 61.5393L124.927 61.5539Z" fill="white"/>
<path d="M137.579 124.33C137.557 124.33 138.087 126.218 138.087 126.218H143.613L143.511 124.535L137.579 124.33Z" fill="#407BFF"/>
<path opacity="0.1" d="M137.579 124.33C137.557 124.33 138.087 126.218 138.087 126.218H143.613L143.511 124.535L137.579 124.33Z" fill="black"/>
<path d="M126.851 68.8552C130.37 69.5451 129.998 82.6684 129.574 89.418C128.56 84.6469 127.074 75.4661 126.059 68.9501C126.305 68.8291 126.584 68.7956 126.851 68.8552Z" fill="#407BFF"/>
<path opacity="0.4" d="M126.851 68.8552C130.37 69.5451 129.998 82.6684 129.574 89.418C128.56 84.6469 127.074 75.4661 126.059 68.9501C126.305 68.8291 126.584 68.7956 126.851 68.8552Z" fill="white"/>
<path d="M119.838 61.554C119.838 61.554 119.473 81.6021 119.762 89.7826C120.065 98.2881 123.047 126.141 123.047 126.141H127.588C127.588 126.141 127.756 98.7846 127.953 90.4324C128.176 81.3246 129.275 61.554 129.275 61.554H119.838Z" fill="#407BFF"/>
<path opacity="0.5" d="M119.838 61.554C119.838 61.554 119.473 81.6021 119.762 89.7826C120.065 98.2881 123.047 126.141 123.047 126.141H127.588C127.588 126.141 127.756 98.7846 127.953 90.4324C128.176 81.3246 129.275 61.554 129.275 61.554H119.838Z" fill="white"/>
<path d="M123.989 122.878C123.978 122.878 123.967 122.873 123.959 122.866C123.951 122.859 123.946 122.848 123.945 122.837C123.142 115.128 121.255 96.474 121.025 89.7828C120.78 82.9529 121.003 67.6284 121.076 63.0946C121.076 63.083 121.08 63.0718 121.089 63.0636C121.097 63.0554 121.108 63.0508 121.12 63.0508C121.132 63.0507 121.143 63.0552 121.152 63.0634C121.161 63.0715 121.166 63.0826 121.167 63.0946C121.094 67.6284 120.871 82.9529 121.116 89.7792C121.353 96.4704 123.241 115.117 124.036 122.826C124.036 122.839 124.032 122.851 124.024 122.86C124.016 122.87 124.005 122.876 123.993 122.878H123.989Z" fill="#407BFF"/>
<path opacity="0.4" d="M123.989 122.878C123.978 122.878 123.967 122.873 123.959 122.866C123.951 122.859 123.946 122.848 123.945 122.837C123.142 115.128 121.255 96.474 121.025 89.7828C120.78 82.9529 121.003 67.6284 121.076 63.0946C121.076 63.083 121.08 63.0718 121.089 63.0636C121.097 63.0554 121.108 63.0508 121.12 63.0508C121.132 63.0507 121.143 63.0552 121.152 63.0634C121.161 63.0715 121.166 63.0826 121.167 63.0946C121.094 67.6284 120.871 82.9529 121.116 89.7792C121.353 96.4704 123.241 115.117 124.036 122.826C124.036 122.839 124.032 122.851 124.024 122.86C124.016 122.87 124.005 122.876 123.993 122.878H123.989Z" fill="white"/>
<path d="M122.163 124.33C122.145 124.33 122.423 126.218 122.423 126.218H127.946L128.095 124.535L122.163 124.33Z" fill="#407BFF"/>
<path opacity="0.1" d="M122.163 124.33C122.145 124.33 122.423 126.218 122.423 126.218H127.946L128.095 124.535L122.163 124.33Z" fill="black"/>
</svg>
