<svg width="232" height="231" viewBox="0 0 232 231" fill="none" xmlns="http://www.w3.org/2000/svg">
<g clip-path="url(#clip0_98_2666)">
<path d="M231.5 176.669H0.5V176.784H231.5V176.669Z" fill="#EBEBEB"/>
<path d="M208.354 184.103H201.47V184.218H208.354V184.103Z" fill="#EBEBEB"/>
<path d="M153.524 185.359H149.509V185.475H153.524V185.359Z" fill="#EBEBEB"/>
<path d="M199.52 179.815H183.725V179.93H199.52V179.815Z" fill="#EBEBEB"/>
<path d="M51.1491 182.199H31.1953V182.315H51.1491V182.199Z" fill="#EBEBEB"/>
<path d="M62.4587 182.199H55.2607V182.315H62.4587V182.199Z" fill="#EBEBEB"/>
<path d="M118.199 180.647H74.9189V180.762H118.199V180.647Z" fill="#EBEBEB"/>
<path d="M109.994 156.064H20.7865C20.0876 156.063 19.4178 155.784 18.9241 155.289C18.4304 154.795 18.1531 154.125 18.1531 153.426V28.0251C18.1592 27.3302 18.4391 26.6659 18.9322 26.1763C19.4253 25.6866 20.0916 25.4113 20.7865 25.4102H109.994C110.694 25.4102 111.365 25.6881 111.859 26.1828C112.354 26.6775 112.632 27.3485 112.632 28.0482V153.426C112.632 154.125 112.354 154.796 111.859 155.291C111.365 155.786 110.694 156.064 109.994 156.064ZM20.7865 25.5026C20.1183 25.5038 19.4778 25.7701 19.0058 26.243C18.5337 26.7159 18.2686 27.3569 18.2686 28.0251V153.426C18.2686 154.094 18.5337 154.735 19.0058 155.208C19.4778 155.681 20.1183 155.947 20.7865 155.948H109.994C110.663 155.947 111.304 155.681 111.776 155.208C112.249 154.735 112.515 154.094 112.517 153.426V28.0251C112.515 27.3564 112.249 26.7155 111.776 26.2427C111.304 25.7699 110.663 25.5038 109.994 25.5026H20.7865Z" fill="#EBEBEB"/>
<path d="M209.929 156.064H120.717C120.018 156.063 119.348 155.784 118.853 155.29C118.359 154.795 118.08 154.125 118.079 153.426V28.0251C118.086 27.3298 118.367 26.6654 118.861 26.176C119.355 25.6865 120.022 25.4113 120.717 25.4102H209.929C210.623 25.4126 211.289 25.6884 211.781 26.1779C212.273 26.6674 212.552 27.331 212.558 28.0251V153.426C212.558 154.124 212.281 154.793 211.789 155.288C211.296 155.782 210.627 156.061 209.929 156.064ZM120.717 25.5026C120.048 25.5038 119.408 25.7699 118.935 26.2427C118.462 26.7155 118.196 27.3564 118.195 28.0251V153.426C118.196 154.094 118.462 154.735 118.935 155.208C119.408 155.681 120.048 155.947 120.717 155.948H209.929C210.598 155.947 211.239 155.681 211.712 155.208C212.184 154.735 212.451 154.094 212.452 153.426V28.0251C212.451 27.3564 212.184 26.7155 211.712 26.2427C211.239 25.7699 210.598 25.5038 209.929 25.5026H120.717Z" fill="#EBEBEB"/>
<path d="M102.833 173.296H106.483V148.302H102.833V173.296Z" fill="#F0F0F0"/>
<path d="M29.0099 176.669H104.076V173.296H29.0099V176.669Z" fill="#F0F0F0"/>
<path d="M102.833 148.302H26.5984V173.296H102.833V148.302Z" fill="#F5F5F5"/>
<path d="M97.8988 152.654H31.5278V166.93H97.8988V152.654Z" fill="#F0F0F0"/>
<path d="M48.5712 154.562H80.865C81.4697 154.562 81.96 154.072 81.96 153.468V153.264C81.96 152.66 81.4697 152.169 80.865 152.169H48.5712C47.9665 152.169 47.4763 152.66 47.4763 153.264V153.468C47.4763 154.072 47.9665 154.562 48.5712 154.562Z" fill="#F5F5F5"/>
<path d="M24.9259 148.302H102.833V146.071H24.9259V148.302Z" fill="#F0F0F0"/>
<path d="M108.234 146.071H102.833V148.302H108.234V146.071Z" fill="#E6E6E6"/>
<path d="M100.047 113.103L197.728 113.103V38.1892L100.047 38.1892L100.047 113.103Z" fill="#E6E6E6"/>
<path d="M90.9043 35.2739H203.253C203.478 35.2739 203.693 35.363 203.851 35.5216C204.01 35.6801 204.099 35.8952 204.099 36.1194C204.098 36.3428 204.008 36.5567 203.85 36.7142C203.691 36.8718 203.477 36.9602 203.253 36.9602H90.9043C90.7929 36.9608 90.6824 36.9394 90.5793 36.8972C90.4762 36.855 90.3825 36.7928 90.3035 36.7142C90.2245 36.6357 90.1618 36.5423 90.119 36.4394C90.0762 36.3365 90.0542 36.2262 90.0542 36.1148C90.0548 36.0038 90.0773 35.8939 90.1203 35.7916C90.1634 35.6892 90.2262 35.5964 90.3051 35.5183C90.384 35.4402 90.4776 35.3785 90.5804 35.3365C90.6832 35.2946 90.7932 35.2733 90.9043 35.2739Z" fill="#E6E6E6"/>
<path d="M96.4253 113.103L196.037 113.103V38.1892L96.4253 38.1892L96.4253 113.103Z" fill="#F0F0F0"/>
<path d="M100.047 113.103H197.728V115.5H97.5522L100.047 113.103Z" fill="#E6E6E6"/>
<path d="M90.3913 113.103H190.003L187.508 115.5H87.9011L90.3913 113.103Z" fill="#F0F0F0"/>
<path d="M190.964 108.034V43.2573L101.493 43.2573V108.034H190.964Z" fill="#FAFAFA"/>
<path d="M161.11 108.03L131.361 43.2573H117.312L147.065 108.03H161.11Z" fill="white"/>
<path d="M144.048 108.03L114.295 43.2573H108.821L138.573 108.03H144.048Z" fill="white"/>
<path d="M102.14 108.034V43.2573H101.498V108.034H102.14Z" fill="#E6E6E6"/>
<g opacity="0.4">
<path d="M190.909 95.5742H199.631V33.754H190.909V95.5742Z" fill="#F0F0F0"/>
<path d="M187.508 95.5742H194.304V33.754H187.508V95.5742Z" fill="#E6E6E6"/>
<path d="M182.186 95.5742H190.909V33.754H182.186V95.5742Z" fill="#F0F0F0"/>
<path d="M178.786 95.5742H185.582V33.754H178.786V95.5742Z" fill="#E6E6E6"/>
<path d="M173.459 95.5742H182.182V33.754H173.459V95.5742Z" fill="#F0F0F0"/>
</g>
<g opacity="0.4">
<path d="M104.746 95.5742H109.772L109.772 33.754H104.746L104.746 95.5742Z" fill="#F0F0F0"/>
<path d="M102.782 95.5742H106.7L106.7 33.754H102.782L102.782 95.5742Z" fill="#E6E6E6"/>
<path d="M99.7146 95.5742H104.741L104.741 33.754H99.7146L99.7146 95.5742Z" fill="#F0F0F0"/>
<path d="M97.7556 95.5742H101.673L101.673 33.754H97.7556L97.7556 95.5742Z" fill="#E6E6E6"/>
<path d="M94.688 95.5742H99.7146L99.7146 33.754H94.688L94.688 95.5742Z" fill="#F0F0F0"/>
</g>
<path d="M73.1264 33.7954H32.9924V136.341H73.1264V33.7954Z" fill="#F5F5F5"/>
<path d="M73.1309 136.336H74.2305L74.2305 33.7909H73.1309L73.1309 136.336Z" fill="#E0E0E0"/>
<path d="M69.4072 132.622V37.5098H36.7069L36.7069 132.622H69.4072Z" fill="white"/>
<path d="M48.22 132.622L59.0723 37.5098H65.3325L54.4847 132.622H48.22Z" fill="#FAFAFA"/>
<path d="M42.7961 132.622L53.6439 37.5098H56.7763L45.9285 132.622H42.7961Z" fill="#FAFAFA"/>
<path d="M116 197.533C165.472 197.533 205.577 195.191 205.577 192.303C205.577 189.415 165.472 187.073 116 187.073C66.5279 187.073 26.4229 189.415 26.4229 192.303C26.4229 195.191 66.5279 197.533 116 197.533Z" fill="#F5F5F5"/>
<path d="M184.399 192.303H130.438C129.686 192.311 128.941 192.163 128.249 191.867C127.558 191.571 126.936 191.135 126.423 190.585C125.91 190.036 125.516 189.386 125.268 188.676C125.02 187.966 124.922 187.213 124.981 186.463L132.512 72.317C132.638 70.7443 133.345 69.275 134.496 68.1954C135.646 67.1158 137.158 66.5033 138.735 66.4773H192.692C193.443 66.4699 194.188 66.6189 194.879 66.9149C195.569 67.2109 196.191 67.6475 196.704 68.1967C197.217 68.746 197.609 69.396 197.857 70.1054C198.105 70.8147 198.203 71.5679 198.144 72.317L190.622 186.463C190.496 188.036 189.789 189.505 188.638 190.585C187.488 191.665 185.977 192.277 184.399 192.303Z" fill="#263238"/>
<path d="M195.76 97.1727H189.227C189.046 97.1745 188.866 97.1386 188.699 97.0672C188.532 96.9958 188.382 96.8905 188.258 96.7579C188.135 96.6254 188.04 96.4686 187.98 96.2974C187.92 96.1262 187.896 95.9444 187.91 95.7636L188.562 85.8768C188.598 85.5009 188.772 85.1516 189.05 84.8958C189.328 84.6401 189.69 84.4958 190.068 84.4908H196.596C196.775 84.4892 196.953 84.5245 197.118 84.5945C197.283 84.6645 197.432 84.7677 197.555 84.8977C197.679 85.0277 197.774 85.1817 197.836 85.3501C197.897 85.5185 197.923 85.6978 197.913 85.8768L197.261 95.7636C197.231 96.1432 197.061 96.4981 196.783 96.7587C196.505 97.0193 196.14 97.1669 195.76 97.1727Z" fill="#263238"/>
<path d="M152.858 64.8604H150.47V65.3224H152.858V64.8604Z" fill="#1976D2"/>
<path d="M147.527 64.8604H138.841V65.3224H147.527V64.8604Z" fill="#1976D2"/>
<path d="M183.577 192.303H129.615C128.864 192.311 128.119 192.162 127.428 191.866C126.737 191.57 126.115 191.133 125.602 190.584C125.089 190.035 124.696 189.385 124.447 188.676C124.199 187.966 124.101 187.213 124.159 186.464L131.708 72.3173C131.834 70.7446 132.541 69.2752 133.692 68.1956C134.842 67.116 136.354 66.5035 137.931 66.4776H191.893C192.641 66.4746 193.383 66.627 194.069 66.925C194.756 67.223 195.374 67.6602 195.883 68.209C196.392 68.7578 196.782 69.4062 197.028 70.1133C197.274 70.8204 197.371 71.5709 197.312 72.3173L189.8 186.464C189.674 188.036 188.967 189.506 187.816 190.585C186.666 191.665 185.154 192.277 183.577 192.303Z" fill="#1976D2"/>
<path d="M186.025 179.007H128.936C128.509 179.011 128.086 178.927 127.693 178.759C127.3 178.591 126.947 178.343 126.656 178.031C126.364 177.719 126.14 177.35 125.999 176.947C125.858 176.543 125.803 176.115 125.836 175.69L132.392 76.3134C132.463 75.4224 132.862 74.5894 133.513 73.9764C134.163 73.3634 135.019 73.0141 135.912 72.9963H193.015C193.443 72.9918 193.866 73.0762 194.258 73.2442C194.651 73.4122 195.004 73.6601 195.296 73.9721C195.588 74.2841 195.811 74.6534 195.952 75.0565C196.093 75.4596 196.149 75.8877 196.116 76.3134L189.56 175.69C189.489 176.583 189.087 177.418 188.434 178.031C187.78 178.645 186.922 178.992 186.025 179.007Z" fill="white"/>
<path d="M175.376 72.9961H164.039L136.573 179.007H147.91L175.376 72.9961Z" fill="#FAFAFA"/>
<path d="M185.365 72.9961H179.696L152.23 179.007H157.899L185.365 72.9961Z" fill="#FAFAFA"/>
<path d="M177.834 146.159L165.508 99.5381C165.178 98.2987 164.371 97.2405 163.262 96.5953C162.154 95.9502 160.835 95.7707 159.594 96.0962L130.433 103.802L126.543 164.722L174.392 152.077C175.631 151.745 176.689 150.936 177.334 149.827C177.979 148.719 178.159 147.4 177.834 146.159Z" fill="#F0F0F0"/>
<path opacity="0.2" d="M159.544 186.899C161.026 185.466 161.14 183.18 159.799 181.794C158.458 180.407 156.169 180.445 154.687 181.879C153.206 183.312 153.092 185.598 154.433 186.984C155.774 188.371 158.062 188.333 159.544 186.899Z" fill="white"/>
<path opacity="0.2" d="M166.187 69.5499C166.155 69.9524 165.974 70.3285 165.679 70.6045C165.384 70.8805 164.997 71.0365 164.593 71.0421C164.402 71.0427 164.213 71.0037 164.037 70.9275C163.862 70.8513 163.704 70.7396 163.574 70.5994C163.443 70.4592 163.344 70.2936 163.281 70.113C163.218 69.9324 163.193 69.7406 163.207 69.5499C163.238 69.147 163.419 68.7703 163.714 68.4941C164.009 68.2179 164.397 68.0622 164.801 68.0576C164.992 68.0571 165.182 68.0961 165.357 68.1723C165.533 68.2485 165.691 68.3602 165.821 68.5004C165.951 68.6406 166.051 68.8062 166.114 68.9868C166.177 69.1674 166.202 69.3591 166.187 69.5499Z" fill="white"/>
<path opacity="0.2" d="M165.513 69.5495C165.496 69.771 165.398 69.9784 165.236 70.1306C165.074 70.2829 164.861 70.369 164.639 70.3719C164.533 70.3736 164.428 70.353 164.331 70.3115C164.233 70.27 164.145 70.2085 164.073 70.131C164.001 70.0535 163.946 69.9617 163.911 69.8616C163.877 69.7614 163.863 69.6551 163.872 69.5495C163.889 69.328 163.987 69.1206 164.149 68.9684C164.311 68.8161 164.524 68.73 164.746 68.7271C164.852 68.7255 164.957 68.746 165.054 68.7875C165.152 68.829 165.239 68.8905 165.312 68.968C165.384 69.0455 165.439 69.1373 165.474 69.2374C165.508 69.3376 165.522 69.4439 165.513 69.5495Z" fill="white"/>
<path d="M78.7257 63.7835C80.449 59.547 79.8299 54.3865 74.9419 53.2315C73.8648 52.954 72.7377 52.9327 71.6509 53.1694C70.5641 53.4061 69.5479 53.8941 68.6837 54.5943C67.8195 55.2945 67.1314 56.1875 66.6746 57.2016C66.2177 58.2158 66.0049 59.3228 66.053 60.434C66.2471 65.054 69.287 68.9025 63.9602 72.252C58.6333 75.6015 59.2016 85.6962 69.5042 83.7466C79.8068 81.7969 74.2397 76.4978 74.2397 76.4978C74.2397 76.4978 71.7125 78.5583 70.8994 76.4608C69.8692 73.7443 76.7299 68.7408 78.7257 63.7835Z" fill="#263238"/>
<path d="M60.597 77.6803L60.3706 77.6294C61.059 74.5479 62.1401 73.7533 63.2812 72.9124C64.4223 72.0716 65.5034 71.2723 66.3766 68.2416C66.7878 66.814 66.5291 65.234 66.275 63.7094C65.9516 61.7644 65.6189 59.75 66.6215 57.9482L66.8201 58.0637C65.8592 59.7916 66.1872 61.7597 66.5013 63.6724C66.7601 65.2247 67.028 66.8279 66.5984 68.2924C65.7067 71.3971 64.5425 72.2518 63.4198 73.0834C62.2971 73.915 61.2669 74.6865 60.597 77.6803Z" fill="#263238"/>
<path d="M91.8465 87.0547C91.8789 87.2118 91.9343 87.4474 91.9851 87.6599L92.1468 88.3113C92.2577 88.7502 92.3825 89.1891 92.5118 89.628C92.7752 90.5012 93.057 91.3836 93.3619 92.2522C93.9717 94 94.6686 95.7162 95.4501 97.3942L96.0322 98.6093C96.1308 98.8265 96.2704 99.0227 96.4434 99.1868C96.9626 99.6044 97.5823 99.8784 98.2406 99.9815C99.9681 100.261 101.729 100.261 103.457 99.9815L104.08 101.945C103.602 102.156 103.113 102.341 102.616 102.499C102.121 102.664 101.619 102.803 101.11 102.915C100.05 103.159 98.9622 103.26 97.8756 103.215C96.5971 103.179 95.3539 102.787 94.2859 102.084C93.685 101.667 93.1782 101.128 92.7982 100.504L92.7243 100.388L92.6781 100.309L92.5857 100.143L92.3963 99.8197L92.0221 99.1637C91.0553 97.4016 90.2065 95.5773 89.4811 93.7029C89.13 92.7789 88.7835 91.8133 88.5016 90.8385C88.363 90.3765 88.2244 89.8636 88.0997 89.3647C87.975 88.8657 87.8641 88.3945 87.7625 87.8031L91.8465 87.0547Z" fill="#FFC3BD"/>
<path d="M88.2799 80.5956C92.9415 82.6746 92.8999 89.66 92.8999 89.66L87.9888 92.6122C87.9888 92.6122 84.2928 87.1421 84.57 84.6566C84.8426 82.0648 85.6372 79.4267 88.2799 80.5956Z" fill="#1976D2"/>
<path opacity="0.2" d="M89.0145 86.5553C87.7394 85.2664 86.6167 86.754 85.5911 88.4033C86.2945 89.8617 87.0955 91.2709 87.9888 92.6214L90.0032 91.4109C90.4005 89.8725 90.285 87.8489 89.0145 86.5553Z" fill="black"/>
<path d="M102.972 100.157L106.252 98.5215L106.289 102.813C106.289 102.813 103.84 103.239 102.209 101.52L102.972 100.157Z" fill="#FFC3BD"/>
<path d="M109.777 99.2838L109.213 102.472L106.289 102.813L106.252 98.5215L109.777 99.2838Z" fill="#FFC3BD"/>
<path d="M72.9463 188.893L77.0026 189.281L78.8922 179.843L74.8359 179.455L72.9463 188.893Z" fill="#FFC3BD"/>
<path d="M46.3489 177.828L49.6476 180.231L55.15 172.423L51.8467 170.021L46.3489 177.828Z" fill="#FFC3BD"/>
<path d="M50.858 178.729L48.1414 175.01C48.0962 174.944 48.0283 174.897 47.9507 174.879C47.8731 174.86 47.7912 174.871 47.721 174.908L44.4639 176.636C44.3834 176.683 44.3136 176.746 44.2593 176.822C44.2049 176.897 44.1671 176.984 44.1483 177.075C44.1296 177.166 44.1303 177.26 44.1504 177.351C44.1706 177.442 44.2097 177.527 44.2652 177.602C45.2354 178.882 45.7667 179.45 46.9633 181.09C47.7025 182.097 49.1809 184.43 50.1973 185.821C51.2137 187.212 52.6413 186.283 52.3456 185.613C51.0058 182.605 50.9596 180.845 51.0612 179.436C51.0806 179.184 51.0084 178.933 50.858 178.729Z" fill="#263238"/>
<path d="M77.5383 188.057H72.6689C72.5813 188.057 72.4962 188.086 72.4269 188.139C72.3575 188.193 72.3078 188.268 72.2854 188.352L71.2274 192.192C71.2014 192.282 71.1971 192.378 71.2147 192.471C71.2324 192.564 71.2715 192.651 71.329 192.726C71.3865 192.801 71.4607 192.862 71.5457 192.903C71.6308 192.944 71.7243 192.965 71.8188 192.963C73.5374 192.963 74.3505 192.963 76.4896 192.963H83.0361C84.8148 192.963 85.1844 191.166 84.4499 191C81.1512 190.27 79.2477 189.263 78.2267 188.302C78.0365 188.136 77.7905 188.048 77.5383 188.057Z" fill="#263238"/>
<path opacity="0.2" d="M78.8922 179.847L77.9174 184.712H73.7825L74.8358 179.459L78.8922 179.847Z" fill="black"/>
<path opacity="0.2" d="M51.8467 170.021L55.15 172.428L52.3133 176.452L49.01 174.045L51.8467 170.021Z" fill="black"/>
<path d="M90.2019 84.2777C89.9155 87.3962 88.8806 93.5177 85.8545 105.479L69.2502 104.042C70.0495 97.8096 70.4237 93.7718 68.8621 81.9723C68.8114 81.5823 68.8413 81.186 68.9502 80.808C69.059 80.4301 69.2444 80.0785 69.4948 79.7753C69.7453 79.472 70.0554 79.2234 70.4059 79.045C70.7564 78.8666 71.1399 78.7622 71.5325 78.7383C72.7291 78.6736 74.152 78.632 75.5796 78.6875C78.1052 78.7253 80.6248 78.943 83.1195 79.3389C84.584 79.6022 86.1456 79.9811 87.4161 80.3137C88.2741 80.5385 89.0247 81.06 89.5347 81.7856C90.0447 82.5113 90.2811 83.3942 90.2019 84.2777Z" fill="#1976D2"/>
<path opacity="0.2" d="M69.2871 85.4283C69.4996 87.2763 69.6567 88.9256 69.7491 90.404C71.2783 90.27 72.4056 88.593 72.5211 85.0864C71.9482 83.3908 70.5853 84.0053 69.2871 85.4283Z" fill="black"/>
<path d="M85.8546 105.479C85.8546 105.479 91.4725 130.335 87.7026 147.858C85.1939 159.593 79.6083 183.298 79.6083 183.298L72.5259 183.118C72.5259 183.118 75.9077 158.24 77.3261 148.468C79.7516 131.735 73.6763 104.444 73.6763 104.444L85.8546 105.479Z" fill="#263238"/>
<path opacity="0.2" d="M79.3773 110.501L75.8337 116.087C76.9008 122.709 77.578 129.389 77.8619 136.091C82.8423 127.175 80.4815 115.218 79.3773 110.501Z" fill="black"/>
<path d="M80.6245 183.668L71.8743 183.446L72.3825 180.757L81.3083 181.178L80.6245 183.668Z" fill="#1976D2"/>
<path d="M82.2231 105.215C82.2231 105.215 78.929 131.573 71.7819 145.964C66.0115 157.588 53.9394 176.063 53.9394 176.063L49.5273 172.529C49.5273 172.529 57.0764 152.095 61.3638 144.375C71.8835 125.433 63.2857 110.995 69.2501 104.042L82.2231 105.215Z" fill="#263238"/>
<path d="M151.318 81.7599L72.7892 114.754C70.3239 115.79 69.1651 118.628 70.2009 121.094L88.8788 165.548C89.9146 168.013 92.7527 169.172 95.218 168.136L173.747 135.142C176.212 134.106 177.371 131.268 176.335 128.803L157.658 84.3482C156.622 81.883 153.784 80.7241 151.318 81.7599Z" fill="#1976D2"/>
<path opacity="0.1" d="M151.318 81.7599L72.7892 114.754C70.3239 115.79 69.1651 118.628 70.2009 121.094L88.8788 165.548C89.9146 168.013 92.7527 169.172 95.218 168.136L173.747 135.142C176.212 134.106 177.371 131.268 176.335 128.803L157.658 84.3482C156.622 81.883 153.784 80.7241 151.318 81.7599Z" fill="black"/>
<path opacity="0.2" d="M94.4508 112.775L79.0747 119.236C77.8891 119.734 77.3318 121.099 77.8299 122.284L81.0709 129.998C81.569 131.184 82.9339 131.741 84.1195 131.243L99.4956 124.782C100.681 124.284 101.239 122.919 100.74 121.734L97.4995 114.02C97.0013 112.835 95.6364 112.277 94.4508 112.775Z" fill="white"/>
<path opacity="0.4" d="M105.24 143.267L90.1749 149.596C89.7303 149.783 89.5213 150.295 89.7081 150.74L90.8516 153.461C91.0384 153.906 91.5503 154.115 91.9949 153.928L107.06 147.598C107.505 147.412 107.714 146.9 107.527 146.455L106.383 143.733C106.197 143.289 105.685 143.08 105.24 143.267Z" fill="white"/>
<path opacity="0.4" d="M124.841 135.034L109.776 141.363C109.331 141.55 109.122 142.062 109.309 142.507L110.452 145.228C110.639 145.673 111.151 145.882 111.596 145.695L126.661 139.365C127.106 139.179 127.315 138.667 127.128 138.222L125.984 135.5C125.797 135.056 125.286 134.847 124.841 135.034Z" fill="white"/>
<path opacity="0.4" d="M144.437 126.801L129.372 133.131C128.927 133.317 128.718 133.829 128.905 134.274L130.048 136.995C130.235 137.44 130.747 137.649 131.192 137.462L146.257 131.133C146.701 130.946 146.91 130.434 146.724 129.989L145.58 127.268C145.393 126.823 144.881 126.614 144.437 126.801Z" fill="white"/>
<path opacity="0.4" d="M164.037 118.568L148.972 124.898C148.528 125.084 148.319 125.596 148.505 126.041L149.649 128.763C149.836 129.207 150.348 129.416 150.792 129.229L165.857 122.9C166.302 122.713 166.511 122.201 166.324 121.756L165.181 119.035C164.994 118.59 164.482 118.381 164.037 118.568Z" fill="white"/>
<path d="M54.4014 176.553L48.7419 172.27L50.1326 169.785L56.1478 174.451L54.4014 176.553Z" fill="#1976D2"/>
<path d="M69.0838 103.049L68.206 104.472C68.1367 104.578 68.266 104.712 68.4554 104.726L85.8728 106.232C86.0207 106.232 86.15 106.181 86.1685 106.089L86.4457 104.615C86.4688 104.513 86.3441 104.416 86.1824 104.403L69.3656 102.947C69.3138 102.939 69.2608 102.944 69.2115 102.962C69.1623 102.979 69.1183 103.009 69.0838 103.049Z" fill="#1976D2"/>
<path opacity="0.5" d="M69.0838 103.049L68.206 104.472C68.1367 104.578 68.266 104.712 68.4554 104.726L85.8728 106.232C86.0207 106.232 86.15 106.181 86.1685 106.089L86.4457 104.615C86.4688 104.513 86.3441 104.416 86.1824 104.403L69.3656 102.947C69.3138 102.939 69.2608 102.944 69.2115 102.962C69.1623 102.979 69.1183 103.009 69.0838 103.049Z" fill="black"/>
<path d="M71.1859 105.123L70.7239 105.086C70.6362 105.086 70.5715 105.026 70.5807 104.971L70.9595 103.058C70.9595 102.998 71.052 102.961 71.1444 102.97L71.6064 103.007C71.6988 103.007 71.7634 103.067 71.7496 103.123L71.3707 105.035C71.3522 105.091 71.2691 105.132 71.1859 105.123Z" fill="#1976D2"/>
<path d="M84.5839 106.283L84.1219 106.246C84.0341 106.246 83.9694 106.186 83.9787 106.13L84.3575 104.218C84.3741 104.185 84.4013 104.158 84.4348 104.142C84.4683 104.126 84.5061 104.122 84.5423 104.13L85.0043 104.167C85.0967 104.167 85.1614 104.227 85.1475 104.282L84.7687 106.195C84.7641 106.26 84.6809 106.292 84.5839 106.283Z" fill="#1976D2"/>
<path d="M77.8849 105.705L77.4229 105.664C77.3305 105.664 77.2658 105.604 77.2797 105.548L77.6585 103.635C77.6585 103.58 77.7509 103.538 77.8387 103.548L78.3007 103.589C78.3885 103.589 78.4532 103.649 78.4439 103.705L78.0651 105.617C78.0559 105.673 77.9773 105.71 77.8849 105.705Z" fill="#1976D2"/>
<path d="M51.8929 180.785C51.8409 180.794 51.7878 180.794 51.7358 180.785C51.2323 180.683 50.8118 179.829 50.5901 179.33C50.5813 179.317 50.5767 179.301 50.5767 179.286C50.5767 179.27 50.5813 179.255 50.5901 179.242C50.6021 179.233 50.6167 179.228 50.6317 179.228C50.6466 179.228 50.6612 179.233 50.6732 179.242C50.8303 179.297 52.2071 179.829 52.3133 180.332C52.3261 180.387 52.3233 180.444 52.3054 180.497C52.2874 180.55 52.255 180.597 52.2117 180.633C52.1243 180.716 52.0127 180.769 51.8929 180.785ZM50.8165 179.436C51.1306 180.124 51.4817 180.563 51.7682 180.619C51.8329 180.628 51.899 180.622 51.9604 180.599C52.0217 180.576 52.0764 180.539 52.1193 180.489C52.1424 180.472 52.1599 180.448 52.1698 180.421C52.1796 180.394 52.1814 180.365 52.1747 180.337C52.11 180.027 51.2923 179.63 50.8165 179.436Z" fill="#1976D2"/>
<path d="M51.9344 179.501C51.4952 179.555 51.0494 179.508 50.6315 179.362C50.6188 179.357 50.6078 179.348 50.5997 179.336C50.5915 179.325 50.5866 179.311 50.5853 179.298C50.5835 179.283 50.5856 179.269 50.5913 179.256C50.597 179.243 50.6061 179.232 50.6177 179.224C50.6593 179.196 51.611 178.503 52.1839 178.632C52.2546 178.646 52.3216 178.675 52.3798 178.717C52.4381 178.759 52.4864 178.814 52.5211 178.877C52.5668 178.935 52.5917 179.007 52.5917 179.08C52.5917 179.154 52.5668 179.226 52.5211 179.284C52.3567 179.422 52.1493 179.499 51.9344 179.501ZM50.8579 179.256C51.3199 179.39 52.1839 179.399 52.3964 179.164C52.4333 179.127 52.4657 179.067 52.3964 178.946C52.3736 178.903 52.3414 178.866 52.3022 178.837C52.263 178.809 52.2178 178.789 52.17 178.78C51.7819 178.702 51.1166 179.085 50.8579 179.256Z" fill="#1976D2"/>
<path d="M79.7005 188.842C79.2526 188.831 78.8069 188.775 78.37 188.676C78.3552 188.669 78.3425 188.659 78.3337 188.645C78.3248 188.632 78.3201 188.616 78.3201 188.6C78.3201 188.583 78.3248 188.568 78.3337 188.554C78.3425 188.541 78.3552 188.53 78.37 188.523C78.5733 188.426 80.3381 187.599 80.7816 187.914C80.8228 187.94 80.8556 187.977 80.876 188.021C80.8965 188.066 80.9038 188.115 80.8971 188.163C80.8961 188.254 80.8738 188.342 80.832 188.423C80.7903 188.503 80.7303 188.572 80.6569 188.625C80.3695 188.798 80.0343 188.874 79.7005 188.842ZM78.6472 188.565C79.1739 188.662 80.1441 188.791 80.5414 188.491C80.5929 188.451 80.6352 188.4 80.6655 188.341C80.6957 188.283 80.7133 188.219 80.717 188.154C80.717 188.089 80.7169 188.061 80.6754 188.048C80.4259 187.877 79.3818 188.242 78.6472 188.565Z" fill="#1976D2"/>
<path d="M78.3886 188.676C78.3723 188.682 78.3541 188.682 78.3378 188.676C78.3258 188.667 78.3168 188.655 78.3118 188.641C78.3069 188.627 78.3063 188.612 78.3101 188.597C78.3101 188.519 78.7259 186.777 79.6961 186.888C79.9363 186.92 80.001 187.036 80.0149 187.133C80.0749 187.595 78.9615 188.473 78.4256 188.69L78.3886 188.676ZM79.5991 187.026C78.9846 187.026 78.6289 188.043 78.5087 188.449C79.0862 188.145 79.8947 187.419 79.8439 187.137C79.8439 187.114 79.8439 187.05 79.6637 187.031L79.5991 187.026Z" fill="#1976D2"/>
<path d="M71.0891 85.5116L70.8442 85.8581L70.5762 86.2508C70.3961 86.5188 70.2159 86.7913 70.0449 87.0732C69.6938 87.6276 69.375 88.2051 69.0516 88.7826C68.413 89.9442 67.8513 91.1464 67.37 92.3815C66.8847 93.6093 66.4788 94.867 66.1549 96.1468L65.9378 97.0708C65.9378 97.0431 65.91 97.1401 65.9609 97.3157C66.1199 97.8095 66.3519 98.2766 66.6492 98.7017C67.3955 99.7746 68.2333 100.781 69.1533 101.709C70.0773 102.689 71.1029 103.636 72.1239 104.578C73.145 105.521 74.2168 106.426 75.2886 107.318C76.3605 108.21 77.4554 109.111 78.5226 109.979L77.3676 111.684C74.8929 110.216 72.5036 108.609 70.2113 106.87C69.0563 106.001 67.9244 105.087 66.8294 104.098C65.6813 103.092 64.6337 101.976 63.7017 100.767C63.143 100.057 62.7059 99.259 62.4081 98.406C62.2059 97.8123 62.138 97.1811 62.2094 96.558V96.4287V96.3594L62.2325 96.2208L62.2787 95.9389L62.3757 95.3799C62.6476 93.8919 63.0306 92.4263 63.5215 90.9955C64.0292 89.5718 64.6296 88.1829 65.3187 86.8375C65.6652 86.163 66.044 85.5116 66.4506 84.8694C66.6492 84.546 66.8571 84.2272 67.0743 83.9084L67.4162 83.4464C67.5363 83.2847 67.6379 83.1415 67.7996 82.9429L71.0891 85.5116Z" fill="#FFC3BD"/>
<path d="M70.6777 79.002C67.5084 79.8336 64.45 87.5167 64.45 87.5167L68.5525 91.2681C68.5525 91.2681 74.9974 85.3915 74.7803 82.7396C74.6001 80.485 73.2233 78.3275 70.6777 79.002Z" fill="#1976D2"/>
<path opacity="0.2" d="M75.5795 78.54C74.999 78.6586 74.4071 78.7128 73.8147 78.7017C73.6899 80.984 75.1545 83.1878 78.7535 86.1446C79.6174 83.4511 81.5255 82.869 81.5255 82.869L75.5795 78.54Z" fill="black"/>
<path opacity="0.2" d="M83.1195 79.2651C83.1195 79.2651 83.5399 79.3252 84.5424 79.5562C85.2123 80.5865 86.0809 83.7604 84.1082 86.0242C83.3412 83.2522 81.5117 82.9011 81.5117 82.9011L83.1195 79.2651Z" fill="black"/>
<path d="M75.5795 78.54C75.5795 78.54 74.6555 78.54 73.5283 78.54C72.8584 79.5703 75.1637 82.4255 78.7581 85.3823C79.622 82.6888 81.5301 82.8505 81.5301 82.8505L75.5795 78.54Z" fill="white"/>
<path d="M83.1195 79.2651C83.1195 79.2651 83.5399 79.3252 84.5424 79.5562C85.2123 80.5865 86.6584 83.3769 84.6857 85.6223C83.9187 82.8503 81.5117 82.8872 81.5117 82.8872L83.1195 79.2651Z" fill="white"/>
<path d="M77.0626 70.2471C77.3306 72.7142 77.4183 77.1771 75.5796 78.6739C75.5796 78.6739 76.5359 81.4459 81.5117 82.8874C84.5054 81.1595 83.1194 79.3254 83.1194 79.3254C80.4722 78.4476 80.717 76.4471 81.35 74.5991L77.0626 70.2471Z" fill="#FFC3BD"/>
<path opacity="0.2" d="M78.809 72.0254L81.35 74.5987C81.1943 75.0264 81.0769 75.467 80.9989 75.9154C79.9779 75.6798 78.4995 74.6172 78.4856 73.5269C78.5044 73.0113 78.6139 72.503 78.809 72.0254Z" fill="black"/>
<path d="M82.6805 60.3879C83.489 59.4962 85.0921 60.6327 85.6835 62.818C86.5705 66.052 84.2051 66.283 82.9669 64.666C81.7288 63.049 82.006 61.1317 82.6805 60.3879Z" fill="#263238"/>
<path d="M85.1846 66.0659C85.9958 66.3466 86.7628 66.7418 87.4622 67.2394C87.0603 66.26 86.6999 65.664 85.1846 66.0659Z" fill="#263238"/>
<path d="M85.6511 66.2185C86.3079 66.0877 86.9798 66.0504 87.647 66.1076C86.9909 65.604 86.5151 65.3546 85.6511 66.2185Z" fill="#263238"/>
<path d="M74.8819 66.3937C75.9122 70.3345 76.2679 72.0254 78.6796 73.6748C82.3155 76.1603 86.9309 74.0351 87.1018 69.8633C87.2543 66.1118 85.5449 60.2999 81.3268 59.4775C80.3973 59.2888 79.4349 59.3418 78.5317 59.6313C77.6285 59.9208 76.8146 60.4372 76.168 61.1311C75.5214 61.825 75.0636 62.6732 74.8384 63.5946C74.6132 64.516 74.6282 65.4797 74.8819 66.3937Z" fill="#FFC3BD"/>
<path d="M76.7853 61.1961L75.6441 62.5221C75.3018 62.9138 74.8188 63.1548 74.2999 63.1929C73.781 63.2309 73.268 63.063 72.8721 62.7253C72.4797 62.3836 72.2378 61.9009 72.1989 61.382C72.16 60.8631 72.3272 60.3498 72.6642 59.9533L73.8054 58.632C74.1478 58.2407 74.6303 57.9995 75.1488 57.9606C75.6674 57.9217 76.1804 58.0882 76.5774 58.4241C76.9687 58.7665 77.2099 59.249 77.2488 59.7676C77.2877 60.2861 77.1212 60.7992 76.7853 61.1961Z" fill="white"/>
<path d="M77.8387 62.6749L76.4527 63.3679C75.8838 63.6466 75.2278 63.6888 74.628 63.4853C74.0281 63.2819 73.5331 62.8494 73.251 62.2822C72.9722 61.7127 72.9299 61.056 73.1333 60.4554C73.3366 59.8548 73.7693 59.3589 74.3367 59.0759L75.7227 58.3829C76.2928 58.1045 76.95 58.0628 77.5507 58.2671C78.1514 58.4713 78.6469 58.905 78.929 59.4733C79.2073 60.0427 79.2488 60.6991 79.0445 61.2991C78.8402 61.899 78.4067 62.3937 77.8387 62.6749Z" fill="#1976D2"/>
<path d="M76.0646 69.3415C76.0646 69.3415 78.9105 68.6901 77.7 64.5275C77.6549 64.3673 77.647 64.1989 77.6769 64.0352C77.7069 63.8714 77.774 63.7167 77.873 63.583C77.972 63.4492 78.1003 63.3398 78.2481 63.2633C78.3959 63.1868 78.5593 63.1451 78.7257 63.1415C81.932 63.0537 84.9303 62.3838 84.5053 60.5265C83.974 58.1796 75.986 56.3685 74.5353 61.0671C71.7033 61.7277 71.597 67.3087 76.0646 69.3415Z" fill="#263238"/>
<path d="M76.0786 68.5193C76.8898 68.8 77.6568 69.1951 78.3563 69.6928C77.9543 68.7226 77.594 68.1266 76.0786 68.5193Z" fill="#263238"/>
<path d="M76.5452 68.6807C77.2019 68.5499 77.8738 68.5126 78.541 68.5698C77.8896 68.0755 77.4137 67.8214 76.5452 68.6807Z" fill="#263238"/>
<path d="M74.2352 69.4894C74.6042 70.1854 75.2338 70.707 75.9862 70.9401C76.9888 71.2404 77.5062 70.3533 77.2475 69.397C77.0119 68.5377 76.208 67.3503 75.1962 67.4658C74.9761 67.4963 74.767 67.581 74.5878 67.7123C74.4086 67.8437 74.2649 68.0175 74.1696 68.2183C74.0743 68.419 74.0304 68.6402 74.0418 68.8621C74.0533 69.084 74.1198 69.2996 74.2352 69.4894Z" fill="#FFC3BD"/>
<path d="M81.5624 66.26C81.6271 66.5834 81.8535 66.8144 82.0614 66.7728C82.2693 66.7312 82.394 66.4309 82.334 66.1075C82.2739 65.7841 82.0429 65.5531 81.8304 65.5947C81.6179 65.6363 81.4978 65.9319 81.5624 66.26Z" fill="#263238"/>
<path d="M85.2353 65.5346C85.3 65.8627 85.5217 66.089 85.7342 66.0475C85.9468 66.0059 86.0669 65.7102 86.0022 65.3868C85.9375 65.0634 85.7158 64.8324 85.5032 64.874C85.2907 64.9156 85.1706 65.2112 85.2353 65.5346Z" fill="#263238"/>
<path d="M85.4155 64.9106L86.1501 64.5317C86.1501 64.5317 85.8683 65.2201 85.4155 64.9106Z" fill="#263238"/>
<path d="M83.9741 66.3477C84.4089 67.0326 84.9359 67.6544 85.5403 68.1957C85.3993 68.3501 85.2261 68.4715 85.0328 68.5514C84.8396 68.6312 84.6311 68.6675 84.4223 68.6577L83.9741 66.3477Z" fill="#ED847E"/>
<path d="M82.9206 70.187C82.237 70.1957 81.5759 69.9429 81.0726 69.4801C81.0577 69.4646 81.0493 69.4439 81.0493 69.4224C81.0493 69.4008 81.0577 69.3801 81.0726 69.3646C81.0881 69.3497 81.1088 69.3413 81.1304 69.3413C81.1519 69.3413 81.1726 69.3497 81.1881 69.3646C81.4991 69.6388 81.8704 69.8356 82.2718 69.9392C82.6732 70.0428 83.0934 70.0501 83.4981 69.9606C83.519 69.9569 83.5404 69.9617 83.5577 69.9738C83.5751 69.9859 83.5869 70.0045 83.5905 70.0253C83.5942 70.0461 83.5895 70.0676 83.5773 70.0849C83.5652 70.1022 83.5467 70.114 83.5259 70.1177C83.3272 70.1624 83.1243 70.1856 82.9206 70.187Z" fill="#263238"/>
<path d="M79.3586 64.9984C79.3295 64.9973 79.301 64.9893 79.2755 64.9753C79.2387 64.9533 79.2122 64.9175 79.2019 64.8759C79.1915 64.8344 79.198 64.7904 79.22 64.7536C79.3728 64.494 79.5855 64.2747 79.8402 64.1139C80.095 63.9532 80.3845 63.8557 80.6846 63.8296C80.7271 63.8295 80.7681 63.8458 80.799 63.875C80.83 63.9042 80.8485 63.9442 80.8509 63.9867C80.8515 64.0079 80.8479 64.0291 80.8404 64.0489C80.8328 64.0688 80.8214 64.0869 80.8068 64.1024C80.7922 64.1178 80.7747 64.1302 80.7553 64.1389C80.736 64.1476 80.715 64.1524 80.6938 64.153C80.446 64.1803 80.2082 64.2661 80.0001 64.4035C79.792 64.5409 79.6197 64.7258 79.4972 64.943C79.4803 64.9627 79.4588 64.978 79.4347 64.9877C79.4106 64.9973 79.3845 65.001 79.3586 64.9984Z" fill="#263238"/>
<path d="M86.2565 63.6959C86.2307 63.7028 86.2037 63.7028 86.1779 63.6959C85.9625 63.5689 85.7202 63.4943 85.4705 63.4783C85.2209 63.4622 84.9711 63.5051 84.7411 63.6035C84.7001 63.6244 84.6524 63.628 84.6087 63.6137C84.5649 63.5994 84.5286 63.5684 84.5078 63.5273C84.487 63.4863 84.4833 63.4386 84.4976 63.3949C84.5119 63.3511 84.543 63.3148 84.584 63.294C84.8607 63.1686 85.1635 63.112 85.4668 63.1289C85.7701 63.1458 86.0647 63.2357 86.3258 63.391C86.3442 63.4011 86.3604 63.4148 86.3734 63.4313C86.3865 63.4477 86.3961 63.4666 86.4017 63.4869C86.4073 63.5071 86.4088 63.5283 86.406 63.5491C86.4033 63.57 86.3964 63.59 86.3858 63.6082C86.3742 63.6331 86.356 63.6544 86.3333 63.6699C86.3105 63.6853 86.2839 63.6943 86.2565 63.6959Z" fill="#263238"/>
<path d="M77.0118 109.291L80.7078 109.549L79.04 113.499C79.04 113.499 75.9538 112.525 75.8291 110.265L77.0118 109.291Z" fill="#FFC3BD"/>
<path d="M82.1262 111.785L80.3383 114.483L79.0447 113.499L80.7217 109.549L82.1262 111.785Z" fill="#FFC3BD"/>
<path d="M81.7427 65.6318L82.4773 65.2529C82.4773 65.2529 82.1954 65.9413 81.7427 65.6318Z" fill="#263238"/>
</g>
<defs>
<clipPath id="clip0_98_2666">
<rect width="231" height="231" fill="white" transform="translate(0.5)"/>
</clipPath>
</defs>
</svg>
